<svg width="269" height="198" viewBox="0 0 269 198" fill="none" xmlns="http://www.w3.org/2000/svg">
<g clip-path="url(#clip0_4_14482)">
<path d="M268.5 0H91.8924V124.169H268.5V0Z" fill="#D8D9FD"/>
<path d="M246.319 11.7457H109.888V43.2076H246.319V11.7457Z" fill="#EFB22E"/>
<path d="M246.319 51.5974H180.196V105.712H246.319V51.5974Z" fill="#E4A111"/>
<path d="M257.364 123.876L199.61 27.9549C199.468 27.7871 91.8798 91.0506 91.8798 91.0506V124.19L257.364 123.876Z" fill="#F9D37D"/>
<path d="M180.196 105.712V51.5974H216.187L246.319 105.712H180.196Z" fill="#E4A111"/>
<path d="M208.817 43.2245L199.514 27.7704L173.232 43.2245H208.817Z" fill="#E4A111"/>
<path d="M186.737 34.3228L209.977 70.2271C211.326 71.4273 213 72.2014 214.786 72.4521C216.573 72.7029 218.394 72.4192 220.021 71.6366C225.968 68.9644 223.741 62.2609 223.741 62.2609L201.711 25.3457C201.711 25.3457 197.572 23.7264 192.354 27.5648C187.135 31.4031 186.737 34.3228 186.737 34.3228Z" fill="#6C5AE0"/>
<path d="M223.867 62.6469C223.808 62.4036 223.758 62.2609 223.758 62.2609L201.728 25.3457C201.728 25.3457 197.907 23.8565 192.973 27.1411C192.761 27.5047 192.569 27.88 192.4 28.2654C191.425 30.5432 191.387 33.5593 193.291 35.1408C194.852 36.437 197.091 36.3154 199.117 36.3993C201.142 36.4832 203.511 37.0831 204.227 38.9792C204.85 40.632 203.913 42.4064 203.247 44.0424C202.582 45.6784 202.343 47.9101 203.812 48.8834C204.854 49.5713 206.281 49.2651 207.416 49.7895C209.567 50.7837 209.408 53.8627 208.905 56.1867C208.403 58.5107 208.257 61.594 210.416 62.5756C211.99 63.2929 213.764 62.3448 215.405 61.8037C216.799 61.3652 218.267 61.2138 219.722 61.3587C221.176 61.5036 222.586 61.9418 223.867 62.6469Z" fill="#F9D37D"/>
<path d="M222.469 63.4271C221.85 62.37 218.816 62.823 217.15 63.5949C215.479 64.3819 213.987 65.5057 212.768 66.8963C211.76 68.0331 212.086 69.7362 212.35 70.0341C212.965 70.7095 214.819 70.1473 215.405 69.9753C216.945 69.5733 218.398 68.8892 219.69 67.9576C221.13 66.9298 223.038 64.4003 222.469 63.4271Z" fill="#261D5D"/>
<path d="M211.282 70.8773C204.642 61.7268 198.27 52.3904 192.165 42.8679C190.461 40.2055 188.777 37.5278 187.114 34.8346C186.721 34.1928 185.708 34.7843 186.105 35.4261C192.045 45.0464 198.263 54.4864 204.758 63.746C206.574 66.3356 208.413 68.9099 210.274 71.4688C210.709 72.0729 211.726 71.4856 211.282 70.8773Z" fill="black"/>
<path d="M222.565 63.511C222.231 63.9258 221.944 64.3759 221.707 64.8534C221.409 65.3153 221.082 65.758 220.728 66.179C220.019 67.0229 219.185 67.7529 218.255 68.3436C217.325 68.9291 216.295 69.3372 215.216 69.5475C214.304 69.7237 213.044 69.8705 212.371 69.0861C211.877 68.5114 211.052 69.3462 211.534 69.9251C212.304 70.8228 213.563 70.9318 214.668 70.8144C215.97 70.6726 217.231 70.2719 218.376 69.6356C219.476 69.0183 220.467 68.2216 221.306 67.2781C221.719 66.8154 222.102 66.3264 222.452 65.814C222.804 65.3065 223.323 64.6562 223.427 64.0438C223.452 63.9347 223.442 63.8208 223.398 63.7179C223.355 63.6149 223.281 63.528 223.186 63.4694C223.091 63.4108 222.98 63.3833 222.869 63.3907C222.758 63.3982 222.652 63.4402 222.565 63.511Z" fill="black"/>
<path d="M218.004 66.4013C217.167 65.6253 215.94 66.867 216.748 67.6598C217.393 68.2723 218.623 69.4133 217.84 70.3362C216.968 71.249 215.91 71.9642 214.739 72.4336C213.602 72.951 212.379 73.2499 211.132 73.3146C210.542 73.3656 209.948 73.2765 209.399 73.0545C208.862 72.7582 208.396 72.3472 208.035 71.8505C206.16 69.6188 204.373 67.3032 202.594 64.9835C200.816 62.6637 199.246 60.3061 197.497 58.0409C196.601 56.8873 195.405 55.8889 193.898 55.805C193.205 55.7733 192.521 55.9676 191.948 56.3587C191.421 56.793 190.872 57.199 190.303 57.5752C189.303 58.0996 190.182 59.5594 191.178 59.077C192.249 58.5652 192.977 57.2396 194.312 57.6549C195.568 58.0409 196.313 59.3623 197.028 60.3649C198.822 62.8818 200.667 65.361 202.561 67.8024C203.543 69.0749 204.54 70.3334 205.553 71.5779C206.39 72.6224 207.227 73.8977 208.445 74.5143C209.663 75.131 211.195 75.1142 212.576 74.8751C213.909 74.6398 215.196 74.1878 216.384 73.5369C217.061 73.1646 217.703 72.7307 218.301 72.2407C218.94 71.8046 219.437 71.1886 219.728 70.4704C220.259 68.8847 219.079 67.4207 218.004 66.4013Z" fill="#4839A3"/>
<path d="M175.693 66.4223L187.214 57.4662C187.763 57.0467 188.357 56.5937 189.052 56.5559C190.265 56.493 191.144 57.6592 191.789 58.6953C192.274 59.4756 192.776 60.4026 192.467 61.2668C192.194 61.8307 191.756 62.2976 191.211 62.605C188.298 64.6241 185.321 66.5482 182.28 68.3772C181.401 68.9634 180.439 69.4144 179.426 69.7154C178.921 69.8632 178.391 69.9022 177.871 69.8299C177.35 69.7576 176.85 69.5756 176.405 69.2959C175.555 68.6792 174.756 67.1523 175.693 66.4223Z" fill="black"/>
<path d="M197.023 8.95135L194.677 11.3036L197.023 13.6558L199.37 11.3036L197.023 8.95135Z" fill="#6C5AE0"/>
<path d="M27.111 104.175L24.7643 106.528L27.111 108.88L29.4577 106.528L27.111 104.175Z" fill="#6C5AE0"/>
<path d="M220.772 32.7574L218.425 35.1096L220.772 37.4619L223.119 35.1096L220.772 32.7574Z" fill="#6C5AE0"/>
<path d="M217.329 15.1392L214.982 17.4915L217.329 19.8437L219.675 17.4914L217.329 15.1392Z" fill="#F5CE7A"/>
<path d="M19.3748 59.7299L17.0282 62.0822L19.3748 64.4344L21.7215 62.0822L19.3748 59.7299Z" fill="#F5CE7A"/>
<path d="M14.7708 129.787L12.4241 132.139L14.7708 134.492L17.1175 132.139L14.7708 129.787Z" fill="#F5CE7A"/>
<path d="M99.4045 79.2713C100.813 76.4671 101.381 73.3143 101.041 70.1935C101.151 70.1048 101.272 70.0301 101.401 69.9712C98.1159 66.6277 94.0935 64.1045 89.6576 62.6049C87.7492 61.9631 85.6358 61.5226 83.7483 62.2231C82.1203 62.8272 80.8774 64.2199 80.0864 65.7678C79.2955 67.3158 78.9063 69.0399 78.3873 70.9528C82.1841 75.9869 87.6584 79.4867 93.8133 80.815C94.8633 81.0921 95.9598 81.145 97.0316 80.9702C97.5697 80.8785 98.0758 80.651 98.5019 80.3089C98.9281 79.9669 99.2603 79.5217 99.4672 79.0154C99.4672 78.9944 99.4672 78.9692 99.4045 79.2713Z" fill="#FABE9A"/>
<path d="M89.6576 62.6049C87.7492 61.9631 85.6358 61.5226 83.7483 62.2231C82.1203 62.8272 80.8774 64.2199 80.0864 65.7678C79.2955 67.3158 78.9063 69.0399 78.3873 70.9528C79.1519 71.9731 79.9913 72.935 80.8983 73.8305C85.2167 72.1158 89.0831 69.4273 92.1979 65.9734C92.6871 65.4286 93.1335 64.8465 93.5329 64.2325C92.2814 63.5981 90.9864 63.0542 89.6576 62.6049Z" fill="#D79B78"/>
<path d="M84.6146 59.7398C84.2849 60.2742 84.1166 60.8929 84.1299 61.5212C84.1433 62.1494 84.3378 62.7604 84.6899 63.2803C85.4168 64.3187 86.4899 65.0626 87.7157 65.3777C88.9505 65.7098 90.2339 65.8219 91.5073 65.7091C91.9593 68.3184 93.7379 70.592 95.9895 71.9763C98.2942 73.3078 100.917 73.9851 103.577 73.9353C104.678 73.9353 105.862 73.8263 106.703 73.0964C107.738 72.1163 108.374 70.7858 108.486 69.3629C108.632 67.1739 108.574 64.9761 108.314 62.7978C108.186 60.5943 107.45 58.4696 106.188 56.6607C105.565 55.8217 104.795 55.096 104.334 54.1437C103.64 52.7342 103.753 51.0814 103.569 49.5293C103.117 45.6071 100.589 41.9785 97.0985 40.569C94.3238 40.2753 91.7542 42.0624 89.8417 44.0969C86.8995 47.2297 84.8425 51.0912 83.8822 55.2847C83.4972 57.0298 83.3256 58.9679 84.6146 59.7398Z" fill="#FFD2B8"/>
<path d="M97.1069 40.5816C94.3322 40.2879 91.7626 42.075 89.8501 44.1095C86.9078 47.2423 84.8509 51.1038 83.8906 55.2973C83.8278 55.5658 83.7734 55.8427 83.7274 56.1363C85.1392 58.0218 86.7909 59.7141 88.6406 61.1702C89.536 61.9544 90.5873 62.5392 91.725 62.8859C92.8758 63.1754 94.2108 62.9782 95.0395 62.1308C95.9351 61.2164 96.0481 59.7985 95.9351 58.519C95.8221 57.2396 95.5166 55.9517 95.8012 54.7016C96.249 52.6545 98.1406 51.0395 98.1615 48.9462C98.1615 48.1072 97.856 47.2683 97.743 46.4293C97.63 45.5903 97.7849 44.5961 98.4838 44.1053C99.0948 43.6858 99.915 43.7655 100.618 43.5222C100.71 43.4886 100.798 43.4425 100.89 43.4005C99.8728 42.1704 98.5752 41.2035 97.1069 40.5816Z" fill="#FDBD9C"/>
<path d="M109.457 57.7597C109.202 57.6045 108.93 57.4829 108.678 57.3403C108.427 57.1976 108.164 57.0089 107.9 56.8494C107.369 56.5306 106.845 56.1657 106.347 55.7965C106.303 55.7609 106.25 55.7373 106.193 55.7278C106.137 55.7182 106.079 55.7231 106.025 55.742C105.912 55.7456 105.803 55.7821 105.711 55.8469C105.618 55.9117 105.546 56.0021 105.504 56.107C105.462 56.212 105.451 56.3269 105.473 56.4379C105.495 56.5488 105.549 56.651 105.628 56.732C106.255 57.3235 106.795 58.1918 106.49 59.0853C106.318 59.5845 106 59.9705 106.071 60.5326C106.118 60.775 106.231 60.9993 106.399 61.1797C106.568 61.3601 106.783 61.4891 107.021 61.5519C107.25 61.6262 107.492 61.6526 107.732 61.6295C107.972 61.6064 108.204 61.5344 108.415 61.4177C108.643 61.2898 108.854 61.1333 109.043 60.9521C109.227 60.7927 109.423 60.6458 109.599 60.4739C109.994 60.1 110.228 59.587 110.252 59.0434C110.248 58.7774 110.171 58.5176 110.031 58.2915C109.891 58.0655 109.693 57.8817 109.457 57.7597Z" fill="#A2605F"/>
<path d="M108.582 67.0976C108.302 66.611 107.557 66.7872 107.147 66.7243C106.749 66.6613 106.363 66.5412 106 66.3677C105.154 65.9403 104.409 65.3384 103.811 64.6017C103.464 64.1822 102.778 64.6394 102.899 65.0925C102.884 65.5104 102.996 65.9231 103.221 66.2754C103.429 66.6512 103.698 66.9899 104.016 67.278C104.682 67.8642 105.488 68.2662 106.356 68.4442C106.795 68.5365 107.996 68.8259 108.411 68.6372C108.658 68.5239 108.9 67.6514 108.582 67.0976Z" fill="#A2605F"/>
<path d="M102.895 50.6033C102.854 50.4634 102.76 50.3449 102.634 50.2729C102.507 50.2009 102.358 50.181 102.217 50.2174C101.355 50.3806 100.514 50.6352 99.7058 50.9766C99.3019 51.1427 98.9091 51.3347 98.5298 51.5513C98.1113 51.7863 97.6467 52.0505 97.6342 52.5791C97.6379 52.7026 97.6803 52.8217 97.7554 52.9196C97.8306 53.0175 97.9346 53.0892 98.0527 53.1244C98.9483 53.4768 99.9611 53.1706 100.815 52.8434C101.265 52.7022 101.689 52.4883 102.07 52.2099C102.411 51.9328 102.668 51.567 102.815 51.1528C102.831 51.1082 102.841 51.0616 102.845 51.0144C102.913 50.8888 102.931 50.7417 102.895 50.6033Z" fill="black"/>
<path d="M104.171 55.8847C104.18 55.8251 104.172 55.7644 104.15 55.7085C104.181 55.4586 104.137 55.205 104.023 54.9807C103.909 54.7563 103.73 54.5715 103.51 54.45C103.361 54.4117 103.205 54.4081 103.054 54.4394C102.903 54.4706 102.761 54.5359 102.639 54.6304C102.401 54.7711 102.179 54.9386 101.978 55.1296C101.584 55.5074 101.246 55.9396 100.974 56.4132C100.907 56.5223 100.844 56.6356 100.781 56.7446C100.678 56.8813 100.621 57.0473 100.618 57.2186C100.66 57.5458 101.074 57.6381 101.346 57.6843C101.681 57.7326 102.02 57.7326 102.355 57.6843C102.717 57.7068 103.079 57.6253 103.397 57.4494C103.687 57.2475 103.899 56.951 103.995 56.6104C104.098 56.4074 104.152 56.1835 104.154 55.956C104.159 55.9434 104.167 55.914 104.171 55.8847Z" fill="#D0E7E6"/>
<path d="M103.564 54.148C103.53 54.115 103.487 54.0917 103.441 54.0807C103.395 54.0696 103.346 54.0711 103.301 54.0851C103.19 54.0355 103.066 54.0264 102.95 54.0594C102.834 54.0924 102.733 54.1653 102.665 54.2655C102.322 54.8248 102.19 55.4882 102.292 56.1364C102.363 56.6692 102.656 57.5207 103.338 57.4536C103.512 57.4136 103.673 57.3292 103.805 57.2087C103.937 57.0882 104.036 56.9356 104.092 56.7656C104.223 56.4712 104.291 56.1526 104.293 55.8302C104.295 55.5144 104.231 55.2016 104.106 54.9119C103.98 54.6223 103.796 54.362 103.564 54.148Z" fill="#261D5D"/>
<path d="M103.828 53.5146C103.746 53.3849 103.618 53.2912 103.469 53.2523C103.321 53.2133 103.164 53.2321 103.029 53.3048C101.494 54.0303 100.306 55.3324 99.7225 56.9292C99.7023 57.0042 99.6972 57.0823 99.7073 57.1593C99.7175 57.2362 99.7427 57.3104 99.7817 57.3775C99.8206 57.4446 99.8724 57.5033 99.9341 57.5502C99.9957 57.5971 100.066 57.6313 100.141 57.6507C100.291 57.6881 100.45 57.6651 100.584 57.5867C100.718 57.5084 100.815 57.3808 100.857 57.2313C100.878 57.1851 100.894 57.139 100.911 57.0928V57.0677C100.949 56.9921 100.982 56.9166 101.02 56.8453C101.099 56.6801 101.187 56.5191 101.284 56.3629C101.376 56.2161 101.476 56.0693 101.581 55.9434C101.598 55.9277 101.612 55.9092 101.623 55.8889L101.719 55.7756C101.777 55.7043 101.84 55.6372 101.903 55.5701C102.028 55.4358 102.158 55.31 102.296 55.1883L102.506 55.0121L102.606 54.9366C102.91 54.7203 103.234 54.5334 103.573 54.3787C103.651 54.344 103.721 54.2927 103.777 54.2283C103.834 54.1639 103.875 54.088 103.9 54.0058C103.924 53.9236 103.93 53.8371 103.918 53.7523C103.905 53.6675 103.875 53.5863 103.828 53.5146Z" fill="black"/>
<path d="M24.0491 31.2689H37.6211L67.5105 89.1252L59.4208 99.2937L24.0491 31.2689Z" fill="black"/>
<path d="M44.338 68.4316H15.4112V69.6901H44.338V68.4316Z" fill="black"/>
<path d="M48.8662 72.6937H12.67V73.9522H48.8662V72.6937Z" fill="black"/>
<path d="M55.9933 90.1445H15.0011V91.403H55.9933V90.1445Z" fill="black"/>
<path d="M55.4451 93.8571H12.942V95.1155H55.4451V93.8571Z" fill="black"/>
<path d="M15.4195 118.188L15.4081 119.447L30.6242 119.585L30.6356 118.327L15.4195 118.188Z" fill="black"/>
<path d="M12.9528 122.847L12.9237 124.105L30.609 124.516L30.6381 123.258L12.9528 122.847Z" fill="black"/>
<path d="M69.6908 46.8698C68.9718 49.4 68.8702 52.0665 69.3946 54.6444C69.919 57.2223 71.054 59.636 72.7041 61.682C73.788 62.9992 75.0728 64.136 76.2237 65.3903C77.4657 66.6606 78.4093 68.1926 78.9858 69.8747C81.4424 69.8747 83.7023 68.3603 85.1963 66.4055C86.6904 64.4507 87.5441 62.0973 88.1761 59.9118L92.4029 59.5552C92.6758 59.5508 92.9444 59.4864 93.1897 59.3664C93.8719 58.9679 93.7589 57.9695 93.6668 57.1809C93.5366 56.002 93.6557 54.8088 94.0162 53.6791C94.3768 52.5494 94.9707 51.5085 95.7593 50.6242C96.0573 50.3635 96.2775 50.0252 96.3954 49.6468C96.521 48.9295 95.8472 48.3632 95.3408 47.843C94.8594 47.3428 94.4829 46.7511 94.2335 46.1026C93.984 45.4542 93.8668 44.7622 93.8886 44.0676C93.9199 43.3443 94.1102 42.6368 94.4459 41.9958C94.7816 41.3547 95.2544 40.7959 95.8305 40.3593C94.7136 39.0248 93.2194 38.0609 91.545 37.5948C89.8794 37.1314 88.146 36.9625 86.4225 37.0956C81.3878 37.3796 76.5671 39.2318 72.6329 42.3938C71.2016 43.5516 69.8708 44.9107 69.2556 46.66C69.382 46.7637 69.5312 46.8356 69.6908 46.8698Z" fill="#1D1B17"/>
<path d="M99.6514 33.6726C99.0873 32.4459 98.092 31.4707 96.8558 30.9333C96.2767 30.6972 95.6534 30.5903 95.029 30.62C94.4045 30.6497 93.7941 30.8153 93.2399 31.1053C92.5607 31.4551 91.9773 31.9664 91.5408 32.5945C90.755 32.7234 89.9555 32.746 89.1637 32.6616C88.4397 32.5316 87.7241 32.1624 87.0043 32.3092C85.9999 32.5148 85.3303 33.6558 84.3259 33.7481C83.4051 33.8278 82.5305 33.0056 81.6433 33.2531C80.756 33.5006 80.3877 34.608 79.5089 34.7674C78.8686 34.8849 78.2534 34.4235 77.588 34.5032C77.0146 34.5745 76.5878 35.0443 76.1441 35.4219C75.1021 36.3196 73.7671 36.7978 72.6497 37.5948C70.0926 39.4112 68.9208 42.7881 69.2598 45.9091C69.3895 47.1173 69.7536 48.3632 70.6325 49.2063C71.3985 49.8809 72.3681 50.2783 73.3862 50.3348C75.7466 50.5361 78.0441 49.4622 79.9902 48.1073C81.9362 46.7523 83.6814 45.1037 85.732 43.9124C88.5166 42.2939 91.7332 41.5802 94.939 41.8694C95.6564 41.9768 96.3821 42.0175 97.1069 41.9911C97.235 41.9783 97.3622 41.9573 97.4877 41.9282L97.4626 41.9827C98.4419 42.1841 99.4338 41.3535 99.6388 40.397C99.6388 40.3467 99.6388 40.2922 99.6597 40.2418C99.9988 39.5888 100.21 38.8769 100.283 38.1444C100.493 36.6239 100.275 35.0748 99.6514 33.6726ZM99.7476 37.448C99.7298 37.9313 99.6653 38.4118 99.5551 38.8827C99.4253 38.4265 99.2486 37.9851 99.0278 37.5655C98.3829 36.2294 97.4663 35.0434 96.3368 34.0837C95.2024 33.1282 93.7794 32.5843 92.2983 32.5399C92.7813 31.9875 93.4087 31.5813 94.1097 31.3671C94.8106 31.1529 95.5574 31.1392 96.2657 31.3276C97.3924 31.6989 98.3392 32.4803 98.919 33.5174C99.5692 34.724 99.857 36.0936 99.7476 37.4606V37.448Z" fill="black"/>
<path d="M152.592 87.7493C158.108 77.4969 175.316 62.0722 177.878 63.1797C178.865 63.5991 176.752 66.0196 177.388 66.9551C178.317 68.31 180.619 66.4013 182.251 66.2336C182.736 66.1302 183.242 66.1937 183.686 66.4139C184.293 66.8041 184.373 67.7144 184.055 68.3646C183.737 69.0148 183.126 69.4678 182.272 70.139C183.184 70.0216 183.883 71.1038 183.745 72.0141C183.607 72.9244 182.937 73.6544 182.159 74.6066C182.607 74.808 183.255 74.7828 183.502 75.2065C184.431 76.8005 182.498 78.8099 180.949 80.362C181.401 82.8202 179.242 85.0268 176.961 86.0419C174.68 87.0571 172.107 87.4053 170.01 88.7602C167.424 90.4382 165.975 93.3747 164.892 96.2859C163.808 99.1972 162.925 102.226 161.154 104.676C155.584 100.854 152.249 93.9787 152.902 87.2417C152.902 87.292 152.902 87.3382 152.592 87.7493Z" fill="#FFD2B8"/>
<path d="M155.572 83.1181C158.899 82.9058 162.013 81.4008 164.251 78.9232C166.72 76.2258 168.106 72.6895 168.696 69.0609C164.268 72.9454 159.183 78.2352 155.572 83.1181Z" fill="#FFBA95"/>
<path d="M182.611 66.1958C182.49 66.1958 182.368 66.1958 182.251 66.2251C180.619 66.3929 178.317 68.3226 177.388 66.9467C176.806 66.1077 178.539 63.9851 178.053 63.3223C176.56 64.3173 175.28 65.6008 174.287 67.0977C173.992 67.5051 173.788 67.9716 173.688 68.4652C173.644 68.7129 173.667 68.9681 173.756 69.2036C173.844 69.4391 173.994 69.6464 174.191 69.8034C174.664 70.1306 175.308 70.0132 175.865 69.8579C178.248 69.1843 180.46 68.0103 182.356 66.4139L182.611 66.1958Z" fill="#FFBA95"/>
<path d="M184.055 68.3562C184.215 68.021 184.272 67.6457 184.218 67.2781C183.713 68.0132 183.082 68.6535 182.356 69.17C181.171 70.0383 179.845 70.7095 178.761 71.7079C178.464 71.9806 178.166 72.3749 178.309 72.7524C178.485 73.2348 179.146 73.2307 179.652 73.1006C181.106 72.7059 182.442 71.9614 183.544 70.9318C183.439 70.6845 183.259 70.4759 183.031 70.3348C182.802 70.1936 182.536 70.1267 182.268 70.1432C183.126 69.4594 183.737 69.0106 184.055 68.3562Z" fill="#FFBA95"/>
<path d="M180.548 75.8231C180.249 75.9948 179.984 76.2194 179.765 76.4859C179.658 76.6206 179.595 76.7851 179.585 76.9569C179.574 77.1288 179.617 77.2997 179.707 77.4465C180.062 77.9247 180.816 77.6562 181.301 77.3123C182.131 76.719 182.875 76.0131 183.511 75.2148C183.264 74.7953 182.615 74.7953 182.167 74.6149L182.473 74.2416C181.884 74.8306 181.24 75.3603 180.548 75.8231Z" fill="#FFBA95"/>
<path d="M179.753 80.169C179.392 80.3254 179.076 80.569 178.832 80.8779C178.716 81.0355 178.664 81.2318 178.688 81.4262C178.713 81.6206 178.81 81.7983 178.962 81.9225C179.094 81.9805 179.236 82.0104 179.38 82.0104C179.524 82.0104 179.667 81.9805 179.799 81.9225C180.201 81.7893 180.592 81.6266 180.97 81.4359C181.015 81.0785 181.005 80.7164 180.941 80.362C181.908 79.3929 183.034 78.2645 183.502 77.1277C182.432 78.3453 181.164 79.3735 179.753 80.169Z" fill="#FFBA95"/>
<path d="M165.833 90.1655C163.598 91.6337 160.552 91.2856 158.212 89.9977C156.466 88.9478 154.909 87.6089 153.609 86.0377C153.243 86.6194 152.91 87.1899 152.609 87.7492C152.872 87.4011 152.91 87.3298 152.918 87.2668C152.274 93.9787 155.605 100.858 161.171 104.676C162.941 102.218 163.824 99.1678 164.908 96.2859C165.992 93.404 167.44 90.4382 170.027 88.7602C170.169 88.6679 170.32 88.5924 170.466 88.5085C170.213 88.3452 169.927 88.2406 169.629 88.2023C168.156 88.0219 167.051 89.3685 165.833 90.1655Z" fill="#FFBA95"/>
<path d="M40.2116 112.021C39.4039 110.402 37.1733 109.949 35.47 110.561C33.7667 111.174 32.4735 112.55 31.2473 113.884C30.109 115.142 28.9414 116.401 28.3764 118.003C27.8114 119.605 27.9997 121.577 29.1339 122.706C33.2487 119.612 36.9691 116.023 40.2116 112.021Z" fill="#FFD3B5"/>
<path d="M29.0753 122.638L29.1339 122.706C33.2487 119.612 36.9691 116.023 40.2116 112.021C40.1549 111.91 40.0906 111.804 40.0191 111.702C37.5134 112.622 35.2369 114.076 33.3473 115.964C31.4577 117.852 30 120.13 29.0753 122.638Z" fill="#FFBA95"/>
<path d="M166.068 104.407C166.031 103.704 165.838 103.018 165.501 102.4C165.164 101.782 164.692 101.248 164.122 100.837C160.527 100.221 157.844 97.5317 156.296 94.461C154.747 91.3904 154.182 87.9338 153.626 84.5401C153.529 84.2191 153.324 83.9423 153.044 83.7583C152.765 83.5742 152.43 83.4945 152.098 83.5333C151.516 83.6589 150.974 83.9269 150.52 84.3135C149.177 85.2826 147.808 86.2684 146.775 87.5688C145.741 88.8692 145.055 90.5346 145.289 92.1832C145.08 91.4197 144.603 91.21 144.243 91.3149C143.893 91.4612 143.595 91.7079 143.385 92.0238C142.355 93.2963 141.324 94.5687 140.292 95.8412C139.095 97.0493 138.781 98.7776 139.489 100.036C135.53 101.142 131.955 103.33 129.164 106.354C123.627 97.4663 116.703 89.5266 108.658 82.8369C107.674 81.9254 106.55 81.1776 105.33 80.622C104.075 80.127 102.619 80.0347 101.447 80.6849C101.907 78.4407 100.396 77.0521 98.8186 76.6998C97.2408 76.3474 95.6128 76.6998 94.0058 76.8382C91.0252 77.0403 88.0443 76.4482 85.3659 75.1221C82.6874 73.7959 80.4068 71.7828 78.7556 69.2874C76.0563 71.3596 73.6122 73.4823 71.1682 75.5797L71.9257 76.6285C66.8953 78.0212 62.6642 81.5071 59.3162 85.5301C55.918 89.6411 53.3316 94.3394 50.4398 98.8321C44.4244 108.165 37.0561 116.547 28.5773 123.704C29.6034 129.702 32.5977 135.185 37.0854 139.284C39.0189 141.037 41.375 142.568 43.9781 142.598C47.8995 142.648 50.988 139.418 53.5367 136.435C53.5691 140.876 54.7733 145.23 57.027 149.054C75.9098 150.107 94.8386 150.337 113.918 149.511C114.097 144.799 114.278 140.088 114.462 135.378C116.626 138.239 118.739 141.004 121.514 142.988C124.289 144.972 127.825 146.092 131.139 145.362C134.554 144.607 137.262 142.073 139.781 139.644C143.548 136.012 147.315 132.366 150.55 128.239C153.785 124.111 156.429 119.459 157.664 114.37C158.548 114.659 159.493 114.709 160.402 114.515C161.312 114.322 162.154 113.891 162.845 113.267C164.18 112.055 164.896 110.309 165.427 108.581C165.912 107.245 166.129 105.827 166.068 104.407Z" fill="#D8D9FD"/>
<path d="M78.7556 69.3252C76.0563 71.3975 73.6122 73.5201 71.1682 75.6176L71.9257 76.6663L71.708 76.725C73.1249 78.3229 74.741 79.7314 76.5166 80.9157C77.8681 77.9667 79.7866 75.3139 82.1622 73.109C80.8337 72.0368 79.6838 70.7596 78.7556 69.3252Z" fill="#4839A3"/>
<path d="M78.7556 69.3252C76.0563 71.3975 73.6122 73.5201 71.1682 75.6176L71.9257 76.6663L71.708 76.725C73.1249 78.3229 74.741 79.7314 76.5166 80.9157C77.8681 77.9667 79.7866 75.3139 82.1622 73.109C80.8337 72.0368 79.6838 70.7596 78.7556 69.3252Z" fill="#4839A3"/>
<path d="M121.673 120.965C123.611 115.829 126.125 110.932 129.168 106.366C123.631 97.4789 116.708 89.5392 108.662 82.8495C107.678 81.938 106.554 81.1903 105.335 80.6346C104.262 80.1729 103.06 80.1162 101.949 80.4752C100.763 81.944 99.2795 83.1436 97.5965 83.9948C108.406 85.4126 122.849 101.861 122.476 104.667C122.091 107.583 119.078 113.561 118.065 116.321C117.053 119.081 116.739 122.408 118.484 124.769C119.941 123.894 121.064 122.554 121.673 120.965Z" fill="#4839A3"/>
<path d="M145.239 94.0794C146.762 97.5066 149.792 100.024 152.973 102.004C156.153 103.984 159.589 105.565 162.577 107.822C162.829 107.981 163.034 108.203 163.172 108.468C163.233 108.602 163.244 108.754 163.202 108.896C163.159 109.037 163.067 109.158 162.941 109.236C162.776 109.286 162.6 109.286 162.435 109.236C158.529 108.621 154.798 107.179 151.491 105.007C148.181 102.818 145.618 99.6666 144.146 95.9755C143.977 95.5941 143.891 95.1806 143.895 94.7631C143.898 94.5549 143.959 94.3516 144.069 94.1755C144.18 93.9994 144.337 93.8572 144.523 93.7647C144.616 93.7231 144.718 93.703 144.82 93.7061C144.922 93.7092 145.022 93.7353 145.112 93.7825C145.203 93.8296 145.281 93.8967 145.342 93.9786C145.403 94.0605 145.445 94.1552 145.465 94.2555C145.465 94.3059 145.465 94.3604 145.239 94.0794Z" fill="#F9D37D"/>
<path d="M152.186 101.014C152.29 100.695 152.319 100.357 152.272 100.025C152.225 99.6937 152.102 99.3773 151.914 99.1007C151.531 98.554 151.088 98.0529 150.591 97.6073C148.209 95.1824 146.606 92.0981 145.988 88.7518C145.388 89.7922 145.138 90.9978 145.272 92.1917C145.063 91.4282 144.586 91.2184 144.226 91.3233C144.176 91.3422 144.127 91.3646 144.079 91.3904C144.691 93.4701 145.728 95.3995 147.123 97.0562C148.519 98.7128 150.243 100.06 152.186 101.014Z" fill="#4839A3"/>
<path d="M164.122 100.85C163.563 100.753 163.015 100.603 162.485 100.401C162.229 101.427 161.817 102.408 161.263 103.308C162.468 103.451 163.444 104.852 164.611 104.512C164.914 104.388 165.18 104.187 165.382 103.928C165.585 103.67 165.717 103.364 165.766 103.04C165.473 102.148 164.895 101.379 164.122 100.85Z" fill="#4839A3"/>
<path d="M150.55 128.218C153.709 124.174 156.325 119.618 157.597 114.643C153.167 112.058 149.031 108.995 145.264 105.51C147.055 116.145 144.816 126.926 142.05 137.425C145.089 134.553 147.928 131.477 150.55 128.218Z" fill="#4839A3"/>
<path d="M113.918 149.49L114.433 136.129C108.095 127.139 100.93 118.766 93.0307 111.119C92.1937 110.301 91.1307 109.441 89.984 109.668C88.988 109.873 88.356 110.834 87.8538 111.719C82.2187 121.702 78.9416 132.846 78.2743 144.297C78.1655 146.151 78.1781 148.135 78.7556 149.859C90.4374 150.105 102.158 149.982 113.918 149.49Z" fill="#4839A3"/>
<path d="M51.2224 123.675C48.636 126.577 45.7819 129.64 42.0154 130.487C38.705 131.225 35.177 130.068 32.4359 128.071C31.0628 127.043 29.8241 125.847 28.7489 124.509C29.9075 130.192 32.8387 135.359 37.1189 139.263C39.0524 141.016 41.4085 142.547 44.0116 142.577C46.1041 142.602 47.933 141.704 49.586 140.412C50.2358 138.982 50.7949 137.512 51.2601 136.012L57.7175 116.422C55.5385 118.838 53.3735 121.255 51.2224 123.675Z" fill="#4839A3"/>
<path d="M140.924 137.967C136.134 139.044 131.178 139.165 126.341 138.322C121.504 137.479 116.88 135.689 112.734 133.054C112.499 133.226 112.432 133.591 113.098 133.923L114.416 136.075L114.445 135.374C116.609 138.235 118.722 140.999 121.497 142.984C124.272 144.968 127.808 146.088 131.123 145.358C134.538 144.603 137.245 142.069 139.765 139.64L141.548 137.92C141.339 137.892 141.126 137.907 140.924 137.967Z" fill="#F9D37D"/>
<path d="M101.476 80.5214C101.819 78.3904 100.35 77.0606 98.8186 76.7208C98.6242 76.6747 98.4271 76.6411 98.2285 76.6201C98.1679 76.8816 98.1218 77.1463 98.0904 77.413C97.8281 79.3706 97.5658 81.3156 97.3036 83.2481C98.1633 83.1522 98.9886 82.8556 99.7132 82.382C100.438 81.9085 101.042 81.2712 101.476 80.5214Z" fill="#F9D37D"/>
<path d="M85.7571 85.6056C86.2274 85.7775 86.7432 85.7775 87.2135 85.6056C87.3269 85.547 87.4373 85.4826 87.5441 85.4127C87.6023 85.3831 87.6582 85.3495 87.7115 85.312C87.3548 84.9877 86.8872 84.8135 86.4058 84.8254C83.3588 84.4603 80.4245 83.4483 77.7984 81.8569C75.1724 80.2655 72.9149 78.1313 71.1765 75.5966L71.934 76.6453C66.8953 78.0212 62.6642 81.5072 59.3162 85.5301C55.918 89.6411 53.3316 94.3394 50.4398 98.8322C46.3836 105.116 41.7077 110.975 36.4828 116.321C37.9779 116.555 39.5088 116.324 40.8687 115.658C43.0114 114.672 44.7482 112.977 46.2799 111.178C52.0092 104.466 55.5371 95.7909 62.4089 90.2368C65.6438 87.6841 69.434 85.9326 73.4715 85.125C77.5089 84.3173 81.6795 84.4763 85.6441 85.5888C85.6826 85.5857 85.7212 85.5914 85.7571 85.6056Z" fill="#F9D37D"/>
<path d="M165.624 153.953H129.214V191.288H165.624V153.953Z" fill="black"/>
<path d="M146.791 148.5H1.15286V198H146.791V148.5Z" fill="#6C5AE0"/>
<path d="M1.15286 198V148.5H99.9192L114.985 173.25L99.9192 198H1.15286Z" fill="#F2BF4E"/>
<path d="M166.252 191.917H128.587V153.324H166.252V191.917ZM129.842 190.659H164.996V154.583H129.842V190.659Z" fill="black"/>
<path d="M3.42654 83.619L1.07986 85.9712L3.42655 88.3234L5.77323 85.9712L3.42654 83.619Z" fill="#6C5AE0"/>
<path d="M86.0208 60.176C85.9875 60.176 85.9555 60.1893 85.932 60.2129C85.9085 60.2365 85.8952 60.2685 85.8952 60.3019C85.8952 60.3353 85.9085 60.3673 85.932 60.3909C85.9555 60.4145 85.9875 60.4277 86.0208 60.4277C86.0541 60.4277 86.086 60.4145 86.1096 60.3909C86.1331 60.3673 86.1463 60.3353 86.1463 60.3019C86.1463 60.2685 86.1331 60.2365 86.1096 60.2129C86.086 60.1893 86.0541 60.176 86.0208 60.176Z" fill="#4839A3"/>
<path d="M15.4656 171.736C15.3546 171.736 15.2482 171.691 15.1697 171.613C15.0912 171.534 15.0471 171.427 15.0471 171.316C15.0471 171.205 15.0912 171.098 15.1697 171.019C15.2482 170.941 15.3546 170.897 15.4656 170.897H15.679C15.79 170.897 15.8965 170.941 15.975 171.019C16.0535 171.098 16.0976 171.205 16.0976 171.316C16.0976 171.427 16.0535 171.534 15.975 171.613C15.8965 171.691 15.79 171.736 15.679 171.736H15.4656ZM19.0229 171.71C18.9119 171.71 18.8054 171.666 18.727 171.588C18.6485 171.509 18.6044 171.402 18.6044 171.291C18.6044 171.18 18.6485 171.073 18.727 170.994C18.8054 170.916 18.9119 170.871 19.0229 170.871H19.2321C19.3431 170.871 19.4496 170.916 19.5281 170.994C19.6065 171.073 19.6506 171.18 19.6506 171.291C19.6506 171.402 19.6065 171.509 19.5281 171.588C19.4496 171.666 19.3431 171.71 19.2321 171.71H19.0187H19.0229ZM22.5801 171.685C22.4691 171.685 22.3627 171.641 22.2842 171.562C22.2057 171.484 22.1616 171.377 22.1616 171.266C22.1616 171.154 22.2057 171.048 22.2842 170.969C22.3627 170.89 22.4691 170.846 22.5801 170.846H22.7894C22.9004 170.846 23.0068 170.89 23.0853 170.969C23.1638 171.048 23.2079 171.154 23.2079 171.266C23.2079 171.377 23.1638 171.484 23.0853 171.562C23.0068 171.641 22.9004 171.685 22.7894 171.685H22.576H22.5801ZM26.1374 171.66C26.0264 171.66 25.92 171.616 25.8415 171.537C25.763 171.459 25.7189 171.352 25.7189 171.241C25.7189 171.129 25.763 171.023 25.8415 170.944C25.92 170.865 26.0264 170.821 26.1374 170.821H26.3508C26.4618 170.821 26.5683 170.865 26.6468 170.944C26.7252 171.023 26.7693 171.129 26.7693 171.241C26.7693 171.352 26.7252 171.459 26.6468 171.537C26.5683 171.616 26.4618 171.66 26.3508 171.66H26.1374ZM29.6947 171.639C29.5837 171.639 29.4772 171.595 29.3987 171.516C29.3203 171.438 29.2762 171.331 29.2762 171.22C29.2762 171.108 29.3203 171.002 29.3987 170.923C29.4772 170.844 29.5837 170.8 29.6947 170.8H29.9081C30.0191 170.8 30.1255 170.844 30.204 170.923C30.2825 171.002 30.3266 171.108 30.3266 171.22C30.3266 171.331 30.2825 171.438 30.204 171.516C30.1255 171.595 30.0191 171.639 29.9081 171.639H29.6947ZM33.2519 171.614C33.1409 171.614 33.0345 171.57 32.956 171.491C32.8775 171.412 32.8334 171.306 32.8334 171.194C32.8334 171.083 32.8775 170.976 32.956 170.898C33.0345 170.819 33.1409 170.775 33.2519 170.775H33.4654C33.5764 170.775 33.6828 170.819 33.7613 170.898C33.8398 170.976 33.8839 171.083 33.8839 171.194C33.8839 171.306 33.8398 171.412 33.7613 171.491C33.6828 171.57 33.5764 171.614 33.4654 171.614H33.2519ZM36.8092 171.589C36.6982 171.589 36.5917 171.545 36.5133 171.466C36.4348 171.387 36.3907 171.281 36.3907 171.169C36.3907 171.058 36.4348 170.951 36.5133 170.873C36.5917 170.794 36.6982 170.75 36.8092 170.75H37.0226C37.1336 170.75 37.2401 170.794 37.3186 170.873C37.397 170.951 37.4411 171.058 37.4411 171.169C37.4411 171.281 37.397 171.387 37.3186 171.466C37.2401 171.545 37.1336 171.589 37.0226 171.589H36.8092ZM40.3665 171.564C40.2555 171.564 40.149 171.519 40.0705 171.441C39.992 171.362 39.948 171.255 39.948 171.144C39.948 171.033 39.992 170.926 40.0705 170.847C40.149 170.769 40.2555 170.725 40.3665 170.725H40.5799C40.6909 170.725 40.7973 170.769 40.8758 170.847C40.9543 170.926 40.9984 171.033 40.9984 171.144C40.9984 171.255 40.9543 171.362 40.8758 171.441C40.7973 171.519 40.6909 171.564 40.5799 171.564H40.3665ZM43.9237 171.538C43.8127 171.538 43.7063 171.494 43.6278 171.416C43.5493 171.337 43.5052 171.23 43.5052 171.119C43.5052 171.008 43.5493 170.901 43.6278 170.822C43.7063 170.744 43.8127 170.699 43.9237 170.699H44.1371C44.2481 170.699 44.3546 170.744 44.4331 170.822C44.5116 170.901 44.5557 171.008 44.5557 171.119C44.5557 171.23 44.5116 171.337 44.4331 171.416C44.3546 171.494 44.2481 171.538 44.1371 171.538H43.9237ZM47.481 171.538C47.37 171.538 47.2635 171.494 47.1851 171.416C47.1066 171.337 47.0625 171.23 47.0625 171.119C47.0625 171.008 47.1066 170.901 47.1851 170.822C47.2635 170.744 47.37 170.699 47.481 170.699H47.6902C47.8012 170.699 47.9077 170.744 47.9862 170.822C48.0646 170.901 48.1087 171.008 48.1087 171.119C48.1087 171.23 48.0646 171.337 47.9862 171.416C47.9077 171.494 47.8012 171.538 47.6902 171.538H47.4768H47.481ZM51.0382 171.513C50.9272 171.513 50.8208 171.469 50.7423 171.39C50.6638 171.312 50.6197 171.205 50.6197 171.094C50.6197 170.983 50.6638 170.876 50.7423 170.797C50.8208 170.718 50.9272 170.674 51.0382 170.674H51.2475C51.3585 170.674 51.4649 170.718 51.5434 170.797C51.6219 170.876 51.666 170.983 51.666 171.094C51.666 171.205 51.6219 171.312 51.5434 171.39C51.4649 171.469 51.3585 171.513 51.2475 171.513H51.0341H51.0382ZM54.5955 171.488C54.4845 171.488 54.3781 171.444 54.2996 171.365C54.2211 171.287 54.177 171.18 54.177 171.069C54.177 170.957 54.2211 170.851 54.2996 170.772C54.3781 170.693 54.4845 170.649 54.5955 170.649H54.8089C54.9199 170.649 55.0264 170.693 55.1049 170.772C55.1833 170.851 55.2274 170.957 55.2274 171.069C55.2274 171.18 55.1833 171.287 55.1049 171.365C55.0264 171.444 54.9199 171.488 54.8089 171.488H54.5955ZM58.1528 171.463C58.0418 171.463 57.9353 171.419 57.8568 171.34C57.7784 171.261 57.7343 171.155 57.7343 171.043C57.7343 170.932 57.7784 170.825 57.8568 170.747C57.9353 170.668 58.0418 170.624 58.1528 170.624H58.3662C58.4772 170.624 58.5836 170.668 58.6621 170.747C58.7406 170.825 58.7847 170.932 58.7847 171.043C58.7847 171.155 58.7406 171.261 58.6621 171.34C58.5836 171.419 58.4772 171.463 58.3662 171.463H58.1528ZM61.71 171.438C61.599 171.438 61.4926 171.394 61.4141 171.315C61.3356 171.236 61.2915 171.13 61.2915 171.018C61.2915 170.907 61.3356 170.8 61.4141 170.722C61.4926 170.643 61.599 170.599 61.71 170.599H61.9235C62.0345 170.599 62.1409 170.643 62.2194 170.722C62.2979 170.8 62.342 170.907 62.342 171.018C62.342 171.13 62.2979 171.236 62.2194 171.315C62.1409 171.394 62.0345 171.438 61.9235 171.438H61.71ZM65.2673 171.413C65.1563 171.413 65.0499 171.368 64.9714 171.29C64.8929 171.211 64.8488 171.104 64.8488 170.993C64.8488 170.882 64.8929 170.775 64.9714 170.696C65.0499 170.618 65.1563 170.574 65.2673 170.574H65.4807C65.5917 170.574 65.6982 170.618 65.7767 170.696C65.8551 170.775 65.8992 170.882 65.8992 170.993C65.8992 171.104 65.8551 171.211 65.7767 171.29C65.6982 171.368 65.5917 171.413 65.4807 171.413H65.2673ZM68.8246 171.392C68.7136 171.392 68.6071 171.347 68.5286 171.269C68.4501 171.19 68.4061 171.083 68.4061 170.972C68.4061 170.861 68.4501 170.754 68.5286 170.675C68.6071 170.597 68.7136 170.553 68.8246 170.553H69.038C69.149 170.553 69.2554 170.597 69.3339 170.675C69.4124 170.754 69.4565 170.861 69.4565 170.972C69.4565 171.083 69.4124 171.19 69.3339 171.269C69.2554 171.347 69.149 171.392 69.038 171.392H68.8246ZM72.3818 171.366C72.2708 171.366 72.1644 171.322 72.0859 171.244C72.0074 171.165 71.9633 171.058 71.9633 170.947C71.9633 170.836 72.0074 170.729 72.0859 170.65C72.1644 170.572 72.2708 170.527 72.3818 170.527H72.5953C72.7062 170.527 72.8127 170.572 72.8912 170.65C72.9697 170.729 73.0138 170.836 73.0138 170.947C73.0138 171.058 72.9697 171.165 72.8912 171.244C72.8127 171.322 72.7062 171.366 72.5953 171.366H72.3818ZM75.9391 171.341C75.8281 171.341 75.7216 171.297 75.6432 171.218C75.5647 171.14 75.5206 171.033 75.5206 170.922C75.5206 170.811 75.5647 170.704 75.6432 170.625C75.7216 170.546 75.8281 170.502 75.9391 170.502H76.1525C76.2635 170.502 76.37 170.546 76.4484 170.625C76.5269 170.704 76.571 170.811 76.571 170.922C76.571 171.033 76.5269 171.14 76.4484 171.218C76.37 171.297 76.2635 171.341 76.1525 171.341H75.9391ZM79.4963 171.316C79.3854 171.316 79.2789 171.272 79.2004 171.193C79.1219 171.115 79.0778 171.008 79.0778 170.897C79.0778 170.785 79.1219 170.679 79.2004 170.6C79.2789 170.521 79.3854 170.477 79.4963 170.477H79.7098C79.8208 170.477 79.9272 170.521 80.0057 170.6C80.0842 170.679 80.1283 170.785 80.1283 170.897C80.1283 171.008 80.0842 171.115 80.0057 171.193C79.9272 171.272 79.8208 171.316 79.7098 171.316H79.4963ZM83.0536 171.291C82.9426 171.291 82.8362 171.247 82.7577 171.168C82.6792 171.089 82.6351 170.983 82.6351 170.871C82.6351 170.76 82.6792 170.653 82.7577 170.575C82.8362 170.496 82.9426 170.452 83.0536 170.452H83.2671C83.378 170.452 83.4845 170.496 83.563 170.575C83.6415 170.653 83.6856 170.76 83.6856 170.871C83.6856 170.983 83.6415 171.089 83.563 171.168C83.4845 171.247 83.378 171.291 83.2671 171.291H83.0536ZM86.6109 171.27C86.4999 171.27 86.3934 171.226 86.3149 171.147C86.2365 171.068 86.1924 170.962 86.1924 170.85C86.1924 170.739 86.2365 170.632 86.3149 170.554C86.3934 170.475 86.4999 170.431 86.6109 170.431H86.8243C86.9353 170.431 87.0417 170.475 87.1202 170.554C87.1987 170.632 87.2428 170.739 87.2428 170.85C87.2428 170.962 87.1987 171.068 87.1202 171.147C87.0417 171.226 86.9353 171.27 86.8243 171.27H86.6109ZM90.1681 171.245C90.0571 171.245 89.9507 171.201 89.8722 171.122C89.7937 171.043 89.7496 170.937 89.7496 170.825C89.7496 170.714 89.7937 170.607 89.8722 170.529C89.9507 170.45 90.0571 170.406 90.1681 170.406H90.3774C90.4884 170.406 90.5948 170.45 90.6733 170.529C90.7518 170.607 90.7959 170.714 90.7959 170.825C90.7959 170.937 90.7518 171.043 90.6733 171.122C90.5948 171.201 90.4884 171.245 90.3774 171.245H90.1681ZM93.7254 171.22C93.6144 171.22 93.5079 171.175 93.4295 171.097C93.351 171.018 93.3069 170.911 93.3069 170.8C93.3069 170.689 93.351 170.582 93.4295 170.503C93.5079 170.425 93.6144 170.381 93.7254 170.381H93.9388C94.0498 170.381 94.1563 170.425 94.2348 170.503C94.3132 170.582 94.3573 170.689 94.3573 170.8C94.3573 170.911 94.3132 171.018 94.2348 171.097C94.1563 171.175 94.0498 171.22 93.9388 171.22H93.7254Z" fill="black"/>
<path d="M15.4656 179.286C15.3546 179.286 15.2482 179.242 15.1697 179.164C15.0912 179.085 15.0471 178.978 15.0471 178.867C15.0471 178.756 15.0912 178.649 15.1697 178.57C15.2482 178.492 15.3546 178.447 15.4656 178.447H15.679C15.79 178.447 15.8965 178.492 15.975 178.57C16.0535 178.649 16.0976 178.756 16.0976 178.867C16.0976 178.978 16.0535 179.085 15.975 179.164C15.8965 179.242 15.79 179.286 15.679 179.286H15.4656ZM19.0229 179.261C18.9119 179.261 18.8054 179.217 18.727 179.138C18.6485 179.06 18.6044 178.953 18.6044 178.842C18.6044 178.731 18.6485 178.624 18.727 178.545C18.8054 178.467 18.9119 178.422 19.0229 178.422H19.2321C19.3431 178.422 19.4496 178.467 19.5281 178.545C19.6065 178.624 19.6506 178.731 19.6506 178.842C19.6506 178.953 19.6065 179.06 19.5281 179.138C19.4496 179.217 19.3431 179.261 19.2321 179.261H19.0187H19.0229ZM22.5801 179.236C22.4691 179.236 22.3627 179.192 22.2842 179.113C22.2057 179.035 22.1616 178.928 22.1616 178.817C22.1616 178.705 22.2057 178.599 22.2842 178.52C22.3627 178.441 22.4691 178.397 22.5801 178.397H22.7894C22.9004 178.397 23.0068 178.441 23.0853 178.52C23.1638 178.599 23.2079 178.705 23.2079 178.817C23.2079 178.928 23.1638 179.035 23.0853 179.113C23.0068 179.192 22.9004 179.236 22.7894 179.236H22.576H22.5801ZM26.1374 179.211C26.0264 179.211 25.92 179.167 25.8415 179.088C25.763 179.009 25.7189 178.903 25.7189 178.791C25.7189 178.68 25.763 178.574 25.8415 178.495C25.92 178.416 26.0264 178.372 26.1374 178.372H26.3508C26.4618 178.372 26.5683 178.416 26.6468 178.495C26.7252 178.574 26.7693 178.68 26.7693 178.791C26.7693 178.903 26.7252 179.009 26.6468 179.088C26.5683 179.167 26.4618 179.211 26.3508 179.211H26.1374ZM29.6947 179.19C29.5837 179.19 29.4772 179.146 29.3987 179.067C29.3203 178.988 29.2762 178.882 29.2762 178.77C29.2762 178.659 29.3203 178.553 29.3987 178.474C29.4772 178.395 29.5837 178.351 29.6947 178.351H29.9081C30.0191 178.351 30.1255 178.395 30.204 178.474C30.2825 178.553 30.3266 178.659 30.3266 178.77C30.3266 178.882 30.2825 178.988 30.204 179.067C30.1255 179.146 30.0191 179.19 29.9081 179.19H29.6947ZM33.2519 179.165C33.1409 179.165 33.0345 179.121 32.956 179.042C32.8775 178.963 32.8334 178.857 32.8334 178.745C32.8334 178.634 32.8775 178.527 32.956 178.449C33.0345 178.37 33.1409 178.326 33.2519 178.326H33.4654C33.5764 178.326 33.6828 178.37 33.7613 178.449C33.8398 178.527 33.8839 178.634 33.8839 178.745C33.8839 178.857 33.8398 178.963 33.7613 179.042C33.6828 179.121 33.5764 179.165 33.4654 179.165H33.2519ZM36.8092 179.14C36.6982 179.14 36.5917 179.095 36.5133 179.017C36.4348 178.938 36.3907 178.831 36.3907 178.72C36.3907 178.609 36.4348 178.502 36.5133 178.424C36.5917 178.345 36.6982 178.301 36.8092 178.301H37.0226C37.1336 178.301 37.2401 178.345 37.3186 178.424C37.397 178.502 37.4411 178.609 37.4411 178.72C37.4411 178.831 37.397 178.938 37.3186 179.017C37.2401 179.095 37.1336 179.14 37.0226 179.14H36.8092ZM40.3665 179.114C40.2555 179.114 40.149 179.07 40.0705 178.992C39.992 178.913 39.948 178.806 39.948 178.695C39.948 178.584 39.992 178.477 40.0705 178.398C40.149 178.32 40.2555 178.276 40.3665 178.276H40.5799C40.6909 178.276 40.7973 178.32 40.8758 178.398C40.9543 178.477 40.9984 178.584 40.9984 178.695C40.9984 178.806 40.9543 178.913 40.8758 178.992C40.7973 179.07 40.6909 179.114 40.5799 179.114H40.3665ZM43.9237 179.089C43.8127 179.089 43.7063 179.045 43.6278 178.966C43.5493 178.888 43.5052 178.781 43.5052 178.67C43.5052 178.559 43.5493 178.452 43.6278 178.373C43.7063 178.295 43.8127 178.25 43.9237 178.25H44.1371C44.2481 178.25 44.3546 178.295 44.4331 178.373C44.5116 178.452 44.5557 178.559 44.5557 178.67C44.5557 178.781 44.5116 178.888 44.4331 178.966C44.3546 179.045 44.2481 179.089 44.1371 179.089H43.9237ZM47.481 179.089C47.37 179.089 47.2635 179.045 47.1851 178.966C47.1066 178.888 47.0625 178.781 47.0625 178.67C47.0625 178.559 47.1066 178.452 47.1851 178.373C47.2635 178.295 47.37 178.25 47.481 178.25H47.6944C47.8054 178.25 47.9119 178.295 47.9903 178.373C48.0688 178.452 48.1129 178.559 48.1129 178.67C48.1129 178.781 48.0688 178.888 47.9903 178.966C47.9119 179.045 47.8054 179.089 47.6944 179.089H47.481ZM51.0382 179.064C50.9272 179.064 50.8208 179.02 50.7423 178.941C50.6638 178.863 50.6197 178.756 50.6197 178.645C50.6197 178.533 50.6638 178.427 50.7423 178.348C50.8208 178.269 50.9272 178.225 51.0382 178.225H51.2517C51.3627 178.225 51.4691 178.269 51.5476 178.348C51.6261 178.427 51.6702 178.533 51.6702 178.645C51.6702 178.756 51.6261 178.863 51.5476 178.941C51.4691 179.02 51.3627 179.064 51.2517 179.064H51.0382ZM54.5955 179.039C54.4845 179.039 54.3781 178.995 54.2996 178.916C54.2211 178.837 54.177 178.731 54.177 178.619C54.177 178.508 54.2211 178.402 54.2996 178.323C54.3781 178.244 54.4845 178.2 54.5955 178.2H54.8089C54.9199 178.2 55.0264 178.244 55.1049 178.323C55.1833 178.402 55.2274 178.508 55.2274 178.619C55.2274 178.731 55.1833 178.837 55.1049 178.916C55.0264 178.995 54.9199 179.039 54.8089 179.039H54.5955ZM58.1528 179.014C58.0418 179.014 57.9353 178.97 57.8568 178.891C57.7784 178.812 57.7343 178.706 57.7343 178.594C57.7343 178.483 57.7784 178.376 57.8568 178.298C57.9353 178.219 58.0418 178.175 58.1528 178.175H58.362C58.473 178.175 58.5795 178.219 58.6579 178.298C58.7364 178.376 58.7805 178.483 58.7805 178.594C58.7805 178.706 58.7364 178.812 58.6579 178.891C58.5795 178.97 58.473 179.014 58.362 179.014H58.1486H58.1528ZM61.71 178.989C61.599 178.989 61.4926 178.944 61.4141 178.866C61.3356 178.787 61.2915 178.68 61.2915 178.569C61.2915 178.458 61.3356 178.351 61.4141 178.273C61.4926 178.194 61.599 178.15 61.71 178.15H61.9235C62.0345 178.15 62.1409 178.194 62.2194 178.273C62.2979 178.351 62.342 178.458 62.342 178.569C62.342 178.68 62.2979 178.787 62.2194 178.866C62.1409 178.944 62.0345 178.989 61.9235 178.989H61.71ZM65.2673 178.963C65.1563 178.963 65.0499 178.919 64.9714 178.841C64.8929 178.762 64.8488 178.655 64.8488 178.544C64.8488 178.433 64.8929 178.326 64.9714 178.247C65.0499 178.169 65.1563 178.124 65.2673 178.124H65.4807C65.5917 178.124 65.6982 178.169 65.7767 178.247C65.8551 178.326 65.8992 178.433 65.8992 178.544C65.8992 178.655 65.8551 178.762 65.7767 178.841C65.6982 178.919 65.5917 178.963 65.4807 178.963H65.2673ZM68.8246 178.942C68.7136 178.942 68.6071 178.898 68.5286 178.82C68.4501 178.741 68.4061 178.634 68.4061 178.523C68.4061 178.412 68.4501 178.305 68.5286 178.226C68.6071 178.148 68.7136 178.104 68.8246 178.104H69.038C69.149 178.104 69.2554 178.148 69.3339 178.226C69.4124 178.305 69.4565 178.412 69.4565 178.523C69.4565 178.634 69.4124 178.741 69.3339 178.82C69.2554 178.898 69.149 178.942 69.038 178.942H68.8246ZM72.3818 178.917C72.2708 178.917 72.1644 178.873 72.0859 178.794C72.0074 178.716 71.9633 178.609 71.9633 178.498C71.9633 178.387 72.0074 178.28 72.0859 178.201C72.1644 178.123 72.2708 178.078 72.3818 178.078H72.5953C72.7062 178.078 72.8127 178.123 72.8912 178.201C72.9697 178.28 73.0138 178.387 73.0138 178.498C73.0138 178.609 72.9697 178.716 72.8912 178.794C72.8127 178.873 72.7062 178.917 72.5953 178.917H72.3818ZM75.9391 178.892C75.8281 178.892 75.7216 178.848 75.6432 178.769C75.5647 178.691 75.5206 178.584 75.5206 178.473C75.5206 178.361 75.5647 178.255 75.6432 178.176C75.7216 178.097 75.8281 178.053 75.9391 178.053H76.1525C76.2635 178.053 76.37 178.097 76.4484 178.176C76.5269 178.255 76.571 178.361 76.571 178.473C76.571 178.584 76.5269 178.691 76.4484 178.769C76.37 178.848 76.2635 178.892 76.1525 178.892H75.9391ZM79.4963 178.867C79.3854 178.867 79.2789 178.823 79.2004 178.744C79.1219 178.665 79.0778 178.559 79.0778 178.447C79.0778 178.336 79.1219 178.23 79.2004 178.151C79.2789 178.072 79.3854 178.028 79.4963 178.028H79.7098C79.8208 178.028 79.9272 178.072 80.0057 178.151C80.0842 178.23 80.1283 178.336 80.1283 178.447C80.1283 178.559 80.0842 178.665 80.0057 178.744C79.9272 178.823 79.8208 178.867 79.7098 178.867H79.4963ZM83.0536 178.842C82.9426 178.842 82.8362 178.798 82.7577 178.719C82.6792 178.64 82.6351 178.534 82.6351 178.422C82.6351 178.311 82.6792 178.204 82.7577 178.126C82.8362 178.047 82.9426 178.003 83.0536 178.003H83.2671C83.378 178.003 83.4845 178.047 83.563 178.126C83.6415 178.204 83.6856 178.311 83.6856 178.422C83.6856 178.534 83.6415 178.64 83.563 178.719C83.4845 178.798 83.378 178.842 83.2671 178.842H83.0536ZM86.6109 178.821C86.4999 178.821 86.3934 178.777 86.3149 178.698C86.2365 178.619 86.1924 178.513 86.1924 178.401C86.1924 178.29 86.2365 178.183 86.3149 178.105C86.3934 178.026 86.4999 177.982 86.6109 177.982H86.8201C86.9311 177.982 87.0376 178.026 87.116 178.105C87.1945 178.183 87.2386 178.29 87.2386 178.401C87.2386 178.513 87.1945 178.619 87.116 178.698C87.0376 178.777 86.9311 178.821 86.8201 178.821H86.6109ZM90.1681 178.796C90.0571 178.796 89.9507 178.751 89.8722 178.673C89.7937 178.594 89.7496 178.487 89.7496 178.376C89.7496 178.265 89.7937 178.158 89.8722 178.08C89.9507 178.001 90.0571 177.957 90.1681 177.957H90.3774C90.4884 177.957 90.5948 178.001 90.6733 178.08C90.7518 178.158 90.7959 178.265 90.7959 178.376C90.7959 178.487 90.7518 178.594 90.6733 178.673C90.5948 178.751 90.4884 178.796 90.3774 178.796H90.1681ZM93.7254 178.77C93.6144 178.77 93.5079 178.726 93.4295 178.648C93.351 178.569 93.3069 178.462 93.3069 178.351C93.3069 178.24 93.351 178.133 93.4295 178.054C93.5079 177.976 93.6144 177.932 93.7254 177.932H93.9388C94.0498 177.932 94.1563 177.976 94.2348 178.054C94.3132 178.133 94.3573 178.24 94.3573 178.351C94.3573 178.462 94.3132 178.569 94.2348 178.648C94.1563 178.726 94.0498 178.77 93.9388 178.77H93.7254Z" fill="black"/>
<path d="M15.4656 185.998C15.3546 185.998 15.2482 185.954 15.1697 185.876C15.0912 185.797 15.0471 185.69 15.0471 185.579C15.0471 185.468 15.0912 185.361 15.1697 185.282C15.2482 185.204 15.3546 185.159 15.4656 185.159H15.6749C15.7859 185.159 15.8923 185.204 15.9708 185.282C16.0493 185.361 16.0934 185.468 16.0934 185.579C16.0934 185.69 16.0493 185.797 15.9708 185.876C15.8923 185.954 15.7859 185.998 15.6749 185.998H15.4614H15.4656ZM19.0229 185.973C18.9119 185.973 18.8054 185.929 18.727 185.85C18.6485 185.772 18.6044 185.665 18.6044 185.554C18.6044 185.442 18.6485 185.336 18.727 185.257C18.8054 185.178 18.9119 185.134 19.0229 185.134H19.2321C19.3431 185.134 19.4496 185.178 19.5281 185.257C19.6065 185.336 19.6506 185.442 19.6506 185.554C19.6506 185.665 19.6065 185.772 19.5281 185.85C19.4496 185.929 19.3431 185.973 19.2321 185.973H19.0187H19.0229ZM22.5801 185.948C22.4691 185.948 22.3627 185.904 22.2842 185.825C22.2057 185.747 22.1616 185.64 22.1616 185.529C22.1616 185.417 22.2057 185.311 22.2842 185.232C22.3627 185.153 22.4691 185.109 22.5801 185.109H22.7936C22.9046 185.109 23.011 185.153 23.0895 185.232C23.168 185.311 23.2121 185.417 23.2121 185.529C23.2121 185.64 23.168 185.747 23.0895 185.825C23.011 185.904 22.9046 185.948 22.7936 185.948H22.5801ZM26.1374 185.923C26.0264 185.923 25.92 185.879 25.8415 185.8C25.763 185.721 25.7189 185.615 25.7189 185.503C25.7189 185.392 25.763 185.285 25.8415 185.207C25.92 185.128 26.0264 185.084 26.1374 185.084H26.3508C26.4618 185.084 26.5683 185.128 26.6468 185.207C26.7252 185.285 26.7693 185.392 26.7693 185.503C26.7693 185.615 26.7252 185.721 26.6468 185.8C26.5683 185.879 26.4618 185.923 26.3508 185.923H26.1374ZM29.6947 185.902C29.5837 185.902 29.4772 185.858 29.3987 185.779C29.3203 185.7 29.2762 185.594 29.2762 185.482C29.2762 185.371 29.3203 185.264 29.3987 185.186C29.4772 185.107 29.5837 185.063 29.6947 185.063H29.9081C30.0191 185.063 30.1255 185.107 30.204 185.186C30.2825 185.264 30.3266 185.371 30.3266 185.482C30.3266 185.594 30.2825 185.7 30.204 185.779C30.1255 185.858 30.0191 185.902 29.9081 185.902H29.6947ZM33.2519 185.877C33.1409 185.877 33.0345 185.833 32.956 185.754C32.8775 185.675 32.8334 185.569 32.8334 185.457C32.8334 185.346 32.8775 185.239 32.956 185.161C33.0345 185.082 33.1409 185.038 33.2519 185.038H33.4654C33.5764 185.038 33.6828 185.082 33.7613 185.161C33.8398 185.239 33.8839 185.346 33.8839 185.457C33.8839 185.569 33.8398 185.675 33.7613 185.754C33.6828 185.833 33.5764 185.877 33.4654 185.877H33.2519ZM36.8092 185.852C36.6982 185.852 36.5917 185.807 36.5133 185.729C36.4348 185.65 36.3907 185.543 36.3907 185.432C36.3907 185.321 36.4348 185.214 36.5133 185.135C36.5917 185.057 36.6982 185.013 36.8092 185.013H37.0226C37.1336 185.013 37.2401 185.057 37.3186 185.135C37.397 185.214 37.4411 185.321 37.4411 185.432C37.4411 185.543 37.397 185.65 37.3186 185.729C37.2401 185.807 37.1336 185.852 37.0226 185.852H36.8092ZM40.3665 185.826C40.2555 185.826 40.149 185.782 40.0705 185.704C39.992 185.625 39.948 185.518 39.948 185.407C39.948 185.296 39.992 185.189 40.0705 185.11C40.149 185.032 40.2555 184.987 40.3665 184.987H40.5799C40.6909 184.987 40.7973 185.032 40.8758 185.11C40.9543 185.189 40.9984 185.296 40.9984 185.407C40.9984 185.518 40.9543 185.625 40.8758 185.704C40.7973 185.782 40.6909 185.826 40.5799 185.826H40.3665ZM43.9237 185.801C43.8127 185.801 43.7063 185.757 43.6278 185.678C43.5493 185.6 43.5052 185.493 43.5052 185.382C43.5052 185.27 43.5493 185.164 43.6278 185.085C43.7063 185.006 43.8127 184.962 43.9237 184.962H44.1371C44.2481 184.962 44.3546 185.006 44.4331 185.085C44.5116 185.164 44.5557 185.27 44.5557 185.382C44.5557 185.493 44.5116 185.6 44.4331 185.678C44.3546 185.757 44.2481 185.801 44.1371 185.801H43.9237ZM47.481 185.801C47.37 185.801 47.2635 185.757 47.1851 185.678C47.1066 185.6 47.0625 185.493 47.0625 185.382C47.0625 185.27 47.1066 185.164 47.1851 185.085C47.2635 185.006 47.37 184.962 47.481 184.962H47.6944C47.8054 184.962 47.9119 185.006 47.9903 185.085C48.0688 185.164 48.1129 185.27 48.1129 185.382C48.1129 185.493 48.0688 185.6 47.9903 185.678C47.9119 185.757 47.8054 185.801 47.6944 185.801H47.481ZM51.0382 185.776C50.9272 185.776 50.8208 185.732 50.7423 185.653C50.6638 185.575 50.6197 185.468 50.6197 185.357C50.6197 185.245 50.6638 185.139 50.7423 185.06C50.8208 184.981 50.9272 184.937 51.0382 184.937H51.2517C51.3627 184.937 51.4691 184.981 51.5476 185.06C51.6261 185.139 51.6702 185.245 51.6702 185.357C51.6702 185.468 51.6261 185.575 51.5476 185.653C51.4691 185.732 51.3627 185.776 51.2517 185.776H51.0382ZM54.5955 185.751C54.4845 185.751 54.3781 185.707 54.2996 185.628C54.2211 185.549 54.177 185.443 54.177 185.331C54.177 185.22 54.2211 185.113 54.2996 185.035C54.3781 184.956 54.4845 184.912 54.5955 184.912H54.8089C54.9199 184.912 55.0264 184.956 55.1049 185.035C55.1833 185.113 55.2274 185.22 55.2274 185.331C55.2274 185.443 55.1833 185.549 55.1049 185.628C55.0264 185.707 54.9199 185.751 54.8089 185.751H54.5955ZM58.1528 185.726C58.0418 185.726 57.9353 185.682 57.8568 185.603C57.7784 185.524 57.7343 185.417 57.7343 185.306C57.7343 185.195 57.7784 185.088 57.8568 185.01C57.9353 184.931 58.0418 184.887 58.1528 184.887H58.3662C58.4772 184.887 58.5836 184.931 58.6621 185.01C58.7406 185.088 58.7847 185.195 58.7847 185.306C58.7847 185.417 58.7406 185.524 58.6621 185.603C58.5836 185.682 58.4772 185.726 58.3662 185.726H58.1528ZM61.71 185.701C61.599 185.701 61.4926 185.656 61.4141 185.578C61.3356 185.499 61.2915 185.392 61.2915 185.281C61.2915 185.17 61.3356 185.063 61.4141 184.984C61.4926 184.906 61.599 184.862 61.71 184.862H61.9235C62.0345 184.862 62.1409 184.906 62.2194 184.984C62.2979 185.063 62.342 185.17 62.342 185.281C62.342 185.392 62.2979 185.499 62.2194 185.578C62.1409 185.656 62.0345 185.701 61.9235 185.701H61.71ZM65.2673 185.675C65.1563 185.675 65.0499 185.631 64.9714 185.553C64.8929 185.474 64.8488 185.367 64.8488 185.256C64.8488 185.145 64.8929 185.038 64.9714 184.959C65.0499 184.881 65.1563 184.836 65.2673 184.836H65.4807C65.5917 184.836 65.6982 184.881 65.7767 184.959C65.8551 185.038 65.8992 185.145 65.8992 185.256C65.8992 185.367 65.8551 185.474 65.7767 185.553C65.6982 185.631 65.5917 185.675 65.4807 185.675H65.2673ZM68.8246 185.654C68.7136 185.654 68.6071 185.61 68.5286 185.532C68.4501 185.453 68.4061 185.346 68.4061 185.235C68.4061 185.124 68.4501 185.017 68.5286 184.938C68.6071 184.86 68.7136 184.815 68.8246 184.815H69.0338C69.1448 184.815 69.2513 184.86 69.3297 184.938C69.4082 185.017 69.4523 185.124 69.4523 185.235C69.4523 185.346 69.4082 185.453 69.3297 185.532C69.2513 185.61 69.1448 185.654 69.0338 185.654H68.8204H68.8246ZM72.3818 185.629C72.2708 185.629 72.1644 185.585 72.0859 185.506C72.0074 185.428 71.9633 185.321 71.9633 185.21C71.9633 185.098 72.0074 184.992 72.0859 184.913C72.1644 184.834 72.2708 184.79 72.3818 184.79H72.5953C72.7062 184.79 72.8127 184.834 72.8912 184.913C72.9697 184.992 73.0138 185.098 73.0138 185.21C73.0138 185.321 72.9697 185.428 72.8912 185.506C72.8127 185.585 72.7062 185.629 72.5953 185.629H72.3818ZM75.9391 185.604C75.8281 185.604 75.7216 185.56 75.6432 185.481C75.5647 185.403 75.5206 185.296 75.5206 185.185C75.5206 185.073 75.5647 184.967 75.6432 184.888C75.7216 184.809 75.8281 184.765 75.9391 184.765H76.1525C76.2635 184.765 76.37 184.809 76.4484 184.888C76.5269 184.967 76.571 185.073 76.571 185.185C76.571 185.296 76.5269 185.403 76.4484 185.481C76.37 185.56 76.2635 185.604 76.1525 185.604H75.9391ZM79.4963 185.579C79.3854 185.579 79.2789 185.535 79.2004 185.456C79.1219 185.377 79.0778 185.271 79.0778 185.159C79.0778 185.048 79.1219 184.941 79.2004 184.863C79.2789 184.784 79.3854 184.74 79.4963 184.74H79.7098C79.8208 184.74 79.9272 184.784 80.0057 184.863C80.0842 184.941 80.1283 185.048 80.1283 185.159C80.1283 185.271 80.0842 185.377 80.0057 185.456C79.9272 185.535 79.8208 185.579 79.7098 185.579H79.4963ZM83.0536 185.554C82.9426 185.554 82.8362 185.51 82.7577 185.431C82.6792 185.352 82.6351 185.246 82.6351 185.134C82.6351 185.023 82.6792 184.916 82.7577 184.838C82.8362 184.759 82.9426 184.715 83.0536 184.715H83.2629C83.3739 184.715 83.4803 184.759 83.5588 184.838C83.6373 184.916 83.6814 185.023 83.6814 185.134C83.6814 185.246 83.6373 185.352 83.5588 185.431C83.4803 185.51 83.3739 185.554 83.2629 185.554H83.0494H83.0536ZM86.6109 185.533C86.4999 185.533 86.3934 185.489 86.3149 185.41C86.2365 185.331 86.1924 185.225 86.1924 185.113C86.1924 185.002 86.2365 184.895 86.3149 184.817C86.3934 184.738 86.4999 184.694 86.6109 184.694H86.8201C86.9311 184.694 87.0376 184.738 87.116 184.817C87.1945 184.895 87.2386 185.002 87.2386 185.113C87.2386 185.225 87.1945 185.331 87.116 185.41C87.0376 185.489 86.9311 185.533 86.8201 185.533H86.6109ZM90.1681 185.508C90.0571 185.508 89.9507 185.463 89.8722 185.385C89.7937 185.306 89.7496 185.199 89.7496 185.088C89.7496 184.977 89.7937 184.87 89.8722 184.791C89.9507 184.713 90.0571 184.669 90.1681 184.669H90.3816C90.4926 184.669 90.599 184.713 90.6775 184.791C90.756 184.87 90.8001 184.977 90.8001 185.088C90.8001 185.199 90.756 185.306 90.6775 185.385C90.599 185.463 90.4926 185.508 90.3816 185.508H90.1681ZM93.7254 185.482C93.6144 185.482 93.5079 185.438 93.4295 185.36C93.351 185.281 93.3069 185.174 93.3069 185.063C93.3069 184.952 93.351 184.845 93.4295 184.766C93.5079 184.688 93.6144 184.643 93.7254 184.643H93.9388C94.0498 184.643 94.1563 184.688 94.2348 184.766C94.3132 184.845 94.3573 184.952 94.3573 185.063C94.3573 185.174 94.3132 185.281 94.2348 185.36C94.1563 185.438 94.0498 185.482 93.9388 185.482H93.7254Z" fill="black"/>
<path d="M89.5446 55.5029C88.993 54.838 88.305 54.3001 87.5274 53.9256C87.9004 50.7971 88.0166 47.6431 87.8747 44.4955C87.791 42.7001 87.6222 40.9116 87.3684 39.1302C87.1652 37.3648 86.8224 35.6184 86.343 33.9075C86.12 33.0988 85.7802 32.3272 85.3344 31.6171C84.8573 30.9123 84.1794 30.9669 83.4135 31.0717C82.6006 31.1782 81.8054 31.3926 81.049 31.7094C80.4087 31.9737 79.5215 32.3009 79.1448 32.9259C78.7681 33.5509 79.0192 34.4948 79.1448 35.2079C79.2913 36.0889 79.4712 36.9656 79.6679 37.8381C80.0488 39.5161 80.5049 41.1941 80.9485 42.872C81.8944 46.4167 82.8192 50.0034 82.9992 53.6698C81.4902 54.9406 80.3931 56.6332 79.8479 58.5317C79.5654 59.5485 79.5093 60.6151 79.6836 61.6561C79.8579 62.697 80.2583 63.6869 80.8565 64.5556C82.112 66.2335 84.33 67.2361 86.3807 66.7831C88.5402 66.3132 90.1681 64.3794 90.7875 62.2567C91.1368 61.1137 91.2061 59.9031 90.9898 58.7275C90.7734 57.5519 90.2777 56.4458 89.5446 55.5029ZM84.1626 53.4432C83.8278 47.4193 81.5721 41.7268 80.438 35.8246C80.3626 35.447 80.2957 35.0695 80.2329 34.692C80.1869 34.4109 79.9944 33.853 80.1157 33.5761C80.2371 33.2992 80.6723 33.1566 80.9025 33.0434C81.2928 32.8441 81.6987 32.6771 82.1162 32.5442C82.4091 32.4519 82.7021 32.3722 83.0034 32.3092C83.3639 32.1989 83.7398 32.1479 84.1166 32.1582C84.3468 32.2002 84.3258 32.2044 84.4598 32.4183C84.556 32.5736 84.6427 32.7348 84.7192 32.9007C84.9043 33.2945 85.0609 33.701 85.188 34.1173C85.6331 35.6611 85.9564 37.2377 86.1547 38.8323C86.4058 40.5103 86.5732 42.1883 86.6736 43.8662C86.8575 47.0841 86.7679 50.3119 86.4058 53.5145C85.6724 53.3255 84.9065 53.3012 84.1626 53.4432Z" fill="#4839A3"/>
<path d="M87.5274 53.9257C87.9004 50.7971 88.0166 47.6431 87.8747 44.4955C87.791 42.7001 87.6222 40.9116 87.3684 39.1302C87.1652 37.3648 86.8224 35.6184 86.343 33.9075C86.12 33.0989 85.7802 32.3272 85.3344 31.6171C85.2398 31.4641 85.1134 31.3333 84.964 31.2334C84.8145 31.1335 84.6455 31.067 84.4681 31.0382C84.4837 31.4604 84.4486 31.8829 84.3635 32.2967L84.4598 32.4435C84.556 32.5988 84.6427 32.7599 84.7192 32.9259C84.9043 33.3197 85.0609 33.7262 85.188 34.1424C85.6331 35.6863 85.9564 37.2628 86.1547 38.8575C86.4058 40.5355 86.5732 42.2135 86.6736 43.8914C86.8575 47.1093 86.7679 50.3371 86.4058 53.5397C86.1307 53.4723 85.8509 53.426 85.5688 53.4013C85.5311 53.6698 85.4977 53.9341 85.46 54.1983C86.2028 54.4226 86.8919 54.7973 87.4845 55.2992C88.0771 55.8011 88.5607 56.4195 88.9052 57.1163C89.2498 57.813 89.4481 58.5732 89.4879 59.3499C89.5276 60.1265 89.4079 60.9031 89.1362 61.6315C88.8645 62.3599 88.4466 63.0247 87.9083 63.5847C87.3701 64.1447 86.7229 64.5881 86.0068 64.8873C85.2907 65.1866 84.521 65.3354 83.7452 65.3245C82.9695 65.3136 82.2042 65.1433 81.4968 64.8241C81.3248 64.7468 81.1432 64.6932 80.9569 64.6646C81.5827 65.4831 82.422 66.1121 83.3821 66.4823C84.3423 66.8524 85.3858 66.9493 86.3974 66.7621C88.5569 66.2923 90.1849 64.3584 90.8043 62.2358C91.1496 61.0936 91.2159 59.8848 90.9973 58.7116C90.7788 57.5383 90.282 56.4349 89.5487 55.4946C88.9951 54.8322 88.3057 54.2972 87.5274 53.9257Z" fill="#6C5AE0"/>
<path d="M15.792 164.172C15.6811 164.172 15.5746 164.128 15.4961 164.049C15.4176 163.971 15.3735 163.864 15.3735 163.753C15.3735 163.642 15.4176 163.535 15.4961 163.456C15.5746 163.377 15.6811 163.333 15.792 163.333H16.0013C16.1123 163.333 16.2187 163.377 16.2972 163.456C16.3757 163.535 16.4198 163.642 16.4198 163.753C16.4198 163.864 16.3757 163.971 16.2972 164.049C16.2187 164.128 16.1123 164.172 16.0013 164.172H15.792ZM19.3493 164.147C19.2383 164.147 19.1319 164.103 19.0534 164.024C18.9749 163.946 18.9308 163.839 18.9308 163.728C18.9308 163.616 18.9749 163.51 19.0534 163.431C19.1319 163.352 19.2383 163.308 19.3493 163.308H19.5586C19.6696 163.308 19.776 163.352 19.8545 163.431C19.933 163.51 19.9771 163.616 19.9771 163.728C19.9771 163.839 19.933 163.946 19.8545 164.024C19.776 164.103 19.6696 164.147 19.5586 164.147H19.3493ZM22.9066 164.122C22.7956 164.122 22.6891 164.078 22.6106 163.999C22.5322 163.92 22.4881 163.814 22.4881 163.702C22.4881 163.591 22.5322 163.484 22.6106 163.406C22.6891 163.327 22.7956 163.283 22.9066 163.283H23.12C23.231 163.283 23.3374 163.327 23.4159 163.406C23.4944 163.484 23.5385 163.591 23.5385 163.702C23.5385 163.814 23.4944 163.92 23.4159 163.999C23.3374 164.078 23.231 164.122 23.12 164.122H22.9066ZM26.4638 164.101C26.3528 164.101 26.2464 164.057 26.1679 163.978C26.0894 163.899 26.0453 163.793 26.0453 163.681C26.0453 163.57 26.0894 163.463 26.1679 163.385C26.2464 163.306 26.3528 163.262 26.4638 163.262H26.6731C26.7841 163.262 26.8905 163.306 26.969 163.385C27.0475 163.463 27.0916 163.57 27.0916 163.681C27.0916 163.793 27.0475 163.899 26.969 163.978C26.8905 164.057 26.7841 164.101 26.6731 164.101H26.4638ZM30.0169 164.076C29.9059 164.076 29.7995 164.032 29.721 163.953C29.6425 163.874 29.5984 163.768 29.5984 163.656C29.5984 163.545 29.6425 163.438 29.721 163.36C29.7995 163.281 29.9059 163.237 30.0169 163.237H30.2262C30.3372 163.237 30.4436 163.281 30.5221 163.36C30.6006 163.438 30.6447 163.545 30.6447 163.656C30.6447 163.768 30.6006 163.874 30.5221 163.953C30.4436 164.032 30.3372 164.076 30.2262 164.076H30.0211H30.0169ZM33.5742 164.051C33.4632 164.051 33.3567 164.006 33.2783 163.928C33.1998 163.849 33.1557 163.742 33.1557 163.631C33.1557 163.52 33.1998 163.413 33.2783 163.334C33.3567 163.256 33.4632 163.212 33.5742 163.212H33.7834C33.8944 163.212 34.0009 163.256 34.0794 163.334C34.1578 163.413 34.2019 163.52 34.2019 163.631C34.2019 163.742 34.1578 163.849 34.0794 163.928C34.0009 164.006 33.8944 164.051 33.7834 164.051H33.57H33.5742ZM37.1314 164.025C37.0204 164.025 36.914 163.981 36.8355 163.903C36.757 163.824 36.7129 163.717 36.7129 163.606C36.7129 163.495 36.757 163.388 36.8355 163.309C36.914 163.231 37.0204 163.186 37.1314 163.186H37.3407C37.4517 163.186 37.5581 163.231 37.6366 163.309C37.7151 163.388 37.7592 163.495 37.7592 163.606C37.7592 163.717 37.7151 163.824 37.6366 163.903C37.5581 163.981 37.4517 164.025 37.3407 164.025H37.1356H37.1314ZM40.6887 164C40.5777 164 40.4713 163.956 40.3928 163.877C40.3143 163.799 40.2702 163.692 40.2702 163.581C40.2702 163.47 40.3143 163.363 40.3928 163.284C40.4713 163.205 40.5777 163.161 40.6887 163.161H40.898C41.0089 163.161 41.1154 163.205 41.1939 163.284C41.2724 163.363 41.3165 163.47 41.3165 163.581C41.3165 163.692 41.2724 163.799 41.1939 163.877C41.1154 163.956 41.0089 164 40.898 164H40.6845H40.6887ZM44.2501 163.975C44.1392 163.975 44.0327 163.931 43.9542 163.852C43.8757 163.774 43.8316 163.667 43.8316 163.556C43.8316 163.444 43.8757 163.338 43.9542 163.259C44.0327 163.18 44.1392 163.136 44.2501 163.136H44.4594C44.5704 163.136 44.6768 163.18 44.7553 163.259C44.8338 163.338 44.8779 163.444 44.8779 163.556C44.8779 163.667 44.8338 163.774 44.7553 163.852C44.6768 163.931 44.5704 163.975 44.4594 163.975H44.2501ZM47.8074 163.95C47.6964 163.95 47.59 163.906 47.5115 163.827C47.433 163.748 47.3889 163.642 47.3889 163.53C47.3889 163.419 47.433 163.312 47.5115 163.234C47.59 163.155 47.6964 163.111 47.8074 163.111H48.0167C48.1277 163.111 48.2341 163.155 48.3126 163.234C48.3911 163.312 48.4352 163.419 48.4352 163.53C48.4352 163.642 48.3911 163.748 48.3126 163.827C48.2341 163.906 48.1277 163.95 48.0167 163.95H47.8032H47.8074ZM51.3647 163.925C51.2537 163.925 51.1472 163.881 51.0687 163.802C50.9903 163.723 50.9462 163.617 50.9462 163.505C50.9462 163.394 50.9903 163.287 51.0687 163.209C51.1472 163.13 51.2537 163.086 51.3647 163.086H51.5739C51.6849 163.086 51.7914 163.13 51.8699 163.209C51.9483 163.287 51.9924 163.394 51.9924 163.505C51.9924 163.617 51.9483 163.723 51.8699 163.802C51.7914 163.881 51.6849 163.925 51.5739 163.925H51.3647ZM54.9219 163.9C54.8109 163.9 54.7045 163.855 54.626 163.777C54.5475 163.698 54.5034 163.591 54.5034 163.48C54.5034 163.369 54.5475 163.262 54.626 163.183C54.7045 163.105 54.8109 163.061 54.9219 163.061H55.1312C55.2422 163.061 55.3486 163.105 55.4271 163.183C55.5056 163.262 55.5497 163.369 55.5497 163.48C55.5497 163.591 55.5056 163.698 55.4271 163.777C55.3486 163.855 55.2422 163.9 55.1312 163.9H54.9178H54.9219ZM58.4792 163.874C58.3682 163.874 58.2618 163.83 58.1833 163.752C58.1048 163.673 58.0607 163.566 58.0607 163.455C58.0607 163.344 58.1048 163.237 58.1833 163.158C58.2618 163.08 58.3682 163.035 58.4792 163.035H58.6884C58.7994 163.035 58.9059 163.08 58.9844 163.158C59.0629 163.237 59.107 163.344 59.107 163.455C59.107 163.566 59.0629 163.673 58.9844 163.752C58.9059 163.83 58.7994 163.874 58.6884 163.874H58.4792ZM62.0365 163.849C61.9255 163.849 61.819 163.805 61.7405 163.726C61.6621 163.648 61.618 163.541 61.618 163.43C61.618 163.319 61.6621 163.212 61.7405 163.133C61.819 163.054 61.9255 163.01 62.0365 163.01H62.2457C62.3567 163.01 62.4632 163.054 62.5416 163.133C62.6201 163.212 62.6642 163.319 62.6642 163.43C62.6642 163.541 62.6201 163.648 62.5416 163.726C62.4632 163.805 62.3567 163.849 62.2457 163.849H62.0323H62.0365ZM65.5937 163.849C65.4827 163.849 65.3763 163.805 65.2978 163.726C65.2193 163.648 65.1752 163.541 65.1752 163.43C65.1752 163.319 65.2193 163.212 65.2978 163.133C65.3763 163.054 65.4827 163.01 65.5937 163.01H65.803C65.914 163.01 66.0204 163.054 66.0989 163.133C66.1774 163.212 66.2215 163.319 66.2215 163.43C66.2215 163.541 66.1774 163.648 66.0989 163.726C66.0204 163.805 65.914 163.849 65.803 163.849H65.5937ZM69.151 163.824C69.04 163.824 68.9335 163.78 68.8551 163.701C68.7766 163.623 68.7325 163.516 68.7325 163.405C68.7325 163.293 68.7766 163.187 68.8551 163.108C68.9335 163.029 69.04 162.985 69.151 162.985H69.3602C69.4712 162.985 69.5777 163.029 69.6562 163.108C69.7346 163.187 69.7787 163.293 69.7787 163.405C69.7787 163.516 69.7346 163.623 69.6562 163.701C69.5777 163.78 69.4712 163.824 69.3602 163.824H69.1468H69.151ZM72.7083 163.799C72.5973 163.799 72.4908 163.755 72.4123 163.676C72.3338 163.597 72.2897 163.491 72.2897 163.379C72.2897 163.268 72.3338 163.161 72.4123 163.083C72.4908 163.004 72.5973 162.96 72.7083 162.96H72.9175C73.0285 162.96 73.1349 163.004 73.2134 163.083C73.2919 163.161 73.336 163.268 73.336 163.379C73.336 163.491 73.2919 163.597 73.2134 163.676C73.1349 163.755 73.0285 163.799 72.9175 163.799H72.7083ZM76.2655 163.774C76.1545 163.774 76.0481 163.73 75.9696 163.651C75.8911 163.572 75.847 163.466 75.847 163.354C75.847 163.243 75.8911 163.136 75.9696 163.058C76.0481 162.979 76.1545 162.935 76.2655 162.935H76.4748C76.5858 162.935 76.6922 162.979 76.7707 163.058C76.8492 163.136 76.8933 163.243 76.8933 163.354C76.8933 163.466 76.8492 163.572 76.7707 163.651C76.6922 163.73 76.5858 163.774 76.4748 163.774H76.2613H76.2655ZM79.8228 163.749C79.7118 163.749 79.6053 163.704 79.5269 163.626C79.4484 163.547 79.4043 163.44 79.4043 163.329C79.4043 163.218 79.4484 163.111 79.5269 163.032C79.6053 162.954 79.7118 162.91 79.8228 162.91H80.032C80.143 162.91 80.2495 162.954 80.328 163.032C80.4064 163.111 80.4505 163.218 80.4505 163.329C80.4505 163.44 80.4064 163.547 80.328 163.626C80.2495 163.704 80.143 163.749 80.032 163.749H79.8228ZM83.38 163.728C83.2691 163.728 83.1626 163.683 83.0841 163.605C83.0056 163.526 82.9615 163.419 82.9615 163.308C82.9615 163.197 83.0056 163.09 83.0841 163.011C83.1626 162.933 83.2691 162.889 83.38 162.889H83.5893C83.7003 162.889 83.8067 162.933 83.8852 163.011C83.9637 163.09 84.0078 163.197 84.0078 163.308C84.0078 163.419 83.9637 163.526 83.8852 163.605C83.8067 163.683 83.7003 163.728 83.5893 163.728H83.3759H83.38ZM86.9373 163.702C86.8263 163.702 86.7199 163.658 86.6414 163.58C86.5629 163.501 86.5188 163.394 86.5188 163.283C86.5188 163.172 86.5629 163.065 86.6414 162.986C86.7199 162.908 86.8263 162.863 86.9373 162.863H87.1466C87.2575 162.863 87.364 162.908 87.4425 162.986C87.521 163.065 87.5651 163.172 87.5651 163.283C87.5651 163.394 87.521 163.501 87.4425 163.58C87.364 163.658 87.2575 163.702 87.1466 163.702H86.9373ZM90.4946 163.677C90.3836 163.677 90.2771 163.633 90.1986 163.554C90.1202 163.476 90.0761 163.369 90.0761 163.258C90.0761 163.147 90.1202 163.04 90.1986 162.961C90.2771 162.882 90.3836 162.838 90.4946 162.838H90.7038C90.8148 162.838 90.9212 162.882 90.9997 162.961C91.0782 163.04 91.1223 163.147 91.1223 163.258C91.1223 163.369 91.0782 163.476 90.9997 163.554C90.9212 163.633 90.8148 163.677 90.7038 163.677H90.4904H90.4946ZM94.0518 163.652C93.9408 163.652 93.8344 163.608 93.7559 163.529C93.6774 163.451 93.6333 163.344 93.6333 163.233C93.6333 163.121 93.6774 163.015 93.7559 162.936C93.8344 162.857 93.9408 162.813 94.0518 162.813H94.2611C94.3721 162.813 94.4785 162.857 94.557 162.936C94.6355 163.015 94.6796 163.121 94.6796 163.233C94.6796 163.344 94.6355 163.451 94.557 163.529C94.4785 163.608 94.3721 163.652 94.2611 163.652H94.0518Z" fill="black"/>
<path d="M202.377 30.7949L202.042 30.1279L201.385 28.819C201.306 28.6862 201.177 28.5898 201.028 28.5505C200.879 28.5113 200.72 28.5324 200.586 28.6093C200.455 28.6903 200.36 28.8187 200.321 28.9679C200.282 29.1171 200.302 29.2756 200.376 29.4105L201.033 30.7193C201.142 30.9333 201.247 31.1388 201.356 31.3654L201.519 31.6842C201.544 31.7387 201.569 31.7932 201.598 31.8436C201.665 31.9565 201.757 32.0527 201.866 32.1246C201.951 32.176 202.049 32.2032 202.149 32.2032C202.248 32.2032 202.346 32.176 202.431 32.1246C202.515 32.0755 202.585 32.005 202.634 31.9204C202.682 31.8357 202.707 31.7398 202.707 31.6422C202.662 31.3384 202.549 31.0487 202.377 30.7949Z" fill="#E4A111"/>
<path d="M181.565 68.4778C181.485 68.3468 181.357 68.2521 181.209 68.2137C181.06 68.1753 180.903 68.1963 180.77 68.2723C180.485 68.4275 180.209 68.6121 179.933 68.7841L179.096 69.3C178.961 69.3785 178.863 69.5072 178.824 69.6578C178.784 69.8085 178.806 69.9688 178.884 70.1034C178.962 70.238 179.091 70.3359 179.241 70.3757C179.391 70.4154 179.551 70.3936 179.686 70.3152L180.523 69.795C180.803 69.6231 181.092 69.4595 181.36 69.2749C181.487 69.1946 181.583 69.0711 181.627 68.9267C181.666 68.7746 181.643 68.6135 181.565 68.4778Z" fill="#FFEDE3"/>
<path d="M166.423 85.3833C166.326 85.0971 166.211 84.8169 166.08 84.5443C165.971 84.2968 165.858 84.0535 165.741 83.8102C165.511 83.3194 165.264 82.8412 165 82.3713C164.922 82.2376 164.794 82.1405 164.644 82.1012C164.494 82.0619 164.335 82.0836 164.201 82.1616C164.069 82.2418 163.974 82.3703 163.935 82.5198C163.896 82.6693 163.916 82.8281 163.992 82.9628C164.251 83.4243 164.494 83.8983 164.72 84.3765C164.833 84.6114 164.942 84.8463 165.046 85.0854C165.097 85.1945 165.143 85.2994 165.189 85.4085C165.189 85.4336 165.239 85.5301 165.243 85.5427C165.281 85.6392 165.323 85.7357 165.369 85.8279C165.44 85.9481 165.552 86.0384 165.684 86.0822C165.817 86.1259 165.961 86.1201 166.089 86.066C166.218 86.0118 166.322 85.9128 166.384 85.7873C166.445 85.6618 166.459 85.5183 166.423 85.3833Z" fill="#FFEDE3"/>
<path d="M100.852 60.2138C100.371 59.7943 99.8606 59.4251 99.3626 59.0392C99.2484 58.9331 99.0998 58.872 98.9441 58.8672C98.7894 58.8672 98.641 58.9285 98.5313 59.0377C98.4215 59.1469 98.3593 59.2953 98.3582 59.4503C98.3569 59.5282 98.3715 59.6056 98.401 59.6777C98.4305 59.7498 98.4743 59.8152 98.5298 59.8698C99.0697 60.2893 99.597 60.7088 100.154 61.1282C100.219 61.1677 100.292 61.1933 100.367 61.2034C100.443 61.2135 100.52 61.2079 100.593 61.187C100.711 61.1508 100.815 61.079 100.89 60.9814C100.98 60.8718 101.027 60.7323 101.02 60.5903C101.013 60.4483 100.953 60.314 100.852 60.2138Z" fill="#FFEDE3"/>
<path d="M177.442 73.9564V73.8641C177.433 73.834 177.422 73.8046 177.409 73.776L177.346 73.6166C177.3 73.5075 177.258 73.3942 177.212 73.2852C177.197 73.2097 177.16 73.14 177.108 73.0838C177.058 73.02 176.991 72.972 176.915 72.9454C176.85 72.9044 176.775 72.8813 176.698 72.8783C176.622 72.8594 176.543 72.8594 176.467 72.8783C176.319 72.9193 176.193 73.0173 176.116 73.1509L176.057 73.2894C176.028 73.3908 176.028 73.4984 176.057 73.5998L176.191 73.9396L176.258 74.1074C176.283 74.1798 176.313 74.25 176.35 74.3171L176.4 74.3926C176.478 74.5152 176.597 74.606 176.735 74.6485H176.886C176.96 74.6523 177.033 74.6364 177.099 74.6024C177.147 74.5906 177.19 74.5659 177.225 74.5311C177.285 74.4911 177.334 74.4362 177.367 74.3716L177.426 74.2374C177.454 74.1464 177.459 74.05 177.442 73.9564Z" fill="#F8BE9D"/>
<path d="M177.861 78.0044C177.833 77.9265 177.81 77.8466 177.794 77.7653C177.794 77.694 177.794 77.6185 177.794 77.5472C177.795 77.4696 177.781 77.3926 177.752 77.3206C177.723 77.2486 177.681 77.1831 177.627 77.1277C177.514 77.0192 177.364 76.9577 177.208 76.9557C177.052 76.9568 176.902 77.0184 176.79 77.1277C176.683 77.2417 176.622 77.391 176.618 77.5472C176.614 77.7003 176.626 77.8534 176.651 78.0044C176.668 78.1103 176.694 78.2143 176.731 78.3148C176.778 78.4604 176.84 78.6009 176.915 78.7343C176.965 78.8177 177.023 78.8963 177.087 78.9693C177.135 79.0207 177.19 79.0658 177.25 79.1035C177.297 79.1301 177.346 79.1525 177.396 79.1706C177.498 79.1958 177.604 79.1958 177.706 79.1706C177.799 79.1434 177.884 79.0929 177.953 79.0238C178.021 78.9565 178.07 78.8726 178.095 78.7805C178.2 78.4743 177.986 78.2435 177.861 78.0044Z" fill="#F8BE9D"/>
<path d="M177.484 82.3504C177.511 82.2744 177.523 82.1937 177.517 82.1131C177.512 82.0326 177.49 81.954 177.453 81.8823C177.416 81.8106 177.365 81.7473 177.303 81.6964C177.24 81.6454 177.168 81.608 177.09 81.5863C177.013 81.5646 176.931 81.5592 176.852 81.5704C176.772 81.5815 176.695 81.6091 176.627 81.6513C176.558 81.6934 176.499 81.7494 176.453 81.8155C176.406 81.8817 176.374 81.9567 176.359 82.0358C176.273 82.3081 176.221 82.5898 176.204 82.8748C176.195 82.9893 176.195 83.1042 176.204 83.2188C176.204 83.2775 176.204 83.332 176.204 83.3907C176.206 83.4673 176.218 83.5433 176.237 83.6173C176.259 83.6868 176.287 83.7542 176.321 83.8186L176.409 83.9361L176.522 84.0242C176.631 84.0845 176.758 84.1067 176.882 84.0871C176.978 84.0766 177.07 84.0388 177.145 83.978C177.246 83.9082 177.318 83.8037 177.346 83.6844C177.364 83.6114 177.375 83.537 177.38 83.4621C177.382 83.4257 177.382 83.3893 177.38 83.353C177.38 83.2859 177.38 83.2146 177.38 83.1474C177.378 83.0366 177.385 82.9258 177.401 82.816C177.415 82.6588 177.443 82.503 177.484 82.3504Z" fill="#F8BE9D"/>
<path d="M85.9999 57.1431C85.9596 56.9814 85.8722 56.8353 85.7488 56.7236C85.6975 56.6673 85.643 56.6141 85.5855 56.5642C85.439 56.4304 85.2758 56.3162 85.1001 56.2244C84.749 56.0403 84.3579 55.9466 83.9618 55.9517C83.8059 55.9513 83.6559 56.0114 83.5433 56.1195C83.4611 56.2019 83.4051 56.3069 83.3827 56.4213C83.3602 56.5356 83.3721 56.654 83.417 56.7615C83.4619 56.869 83.5376 56.9607 83.6346 57.0249C83.7316 57.0891 83.8455 57.123 83.9618 57.1221H84.1584C84.2625 57.1431 84.3647 57.1726 84.464 57.2102C84.5563 57.2523 84.6445 57.3029 84.7276 57.3612C84.8261 57.441 84.9158 57.531 84.9954 57.6297L84.9034 57.5122C84.9689 57.6151 85.056 57.7025 85.1587 57.7681C85.2578 57.8229 85.3706 57.8476 85.4835 57.8394C85.5964 57.8312 85.7045 57.7904 85.7948 57.722C85.8747 57.6641 85.9358 57.5838 85.9706 57.4913C86.0129 57.3803 86.0231 57.2596 85.9999 57.1431Z" fill="white"/>
<path d="M129.08 106.698C129.179 106.556 129.301 106.431 129.44 106.328C129.544 106.258 129.639 106.176 129.725 106.085C129.71 106 129.677 105.918 129.629 105.846C126.761 101.72 123.669 97.7556 120.367 93.9703C118.693 92.0546 116.961 90.185 115.169 88.3617C113.526 86.621 111.785 84.9753 109.955 83.4326C107.908 81.7547 105.469 80.1228 102.786 79.8376C102.711 79.8244 102.635 79.8244 102.56 79.8376C102.421 79.5537 102.257 79.2827 102.07 79.028C101.833 78.6737 101.577 78.332 101.304 78.0044C100.798 77.3957 100.229 76.843 99.6053 76.3558C99.493 76.2471 99.343 76.1864 99.1868 76.1864C99.0307 76.1864 98.8807 76.2471 98.7683 76.3558C98.7132 76.4108 98.6694 76.4761 98.6395 76.5481C98.6096 76.6201 98.5943 76.6973 98.5943 76.7753C98.5943 76.8533 98.6096 76.9305 98.6395 77.0025C98.6694 77.0745 98.7132 77.1398 98.7683 77.1948C99.3681 77.6639 99.9179 78.1938 100.409 78.7763C100.463 78.8392 100.522 78.9063 100.576 78.9776C100.608 79.0138 100.637 79.0516 100.664 79.0909L100.689 79.1245C100.802 79.2797 100.915 79.4349 101.024 79.5943C101.133 79.7537 101.233 79.9173 101.33 80.0809C101.384 80.1732 101.434 80.2781 101.493 80.3787C99.9611 82.1406 97.4542 82.7321 95.2655 83.2145C92.1728 83.8941 88.9629 84.6072 85.7906 84.0535C85.0541 83.9276 84.736 85.0561 85.4809 85.1819C88.9252 85.7692 92.3653 85.0435 95.7258 84.2968C98.2368 83.7389 100.857 82.9628 102.543 80.9115C102.612 80.9481 102.687 80.9709 102.765 80.9786C105.038 81.2219 107.226 82.7237 108.967 84.1206C110.76 85.6081 112.464 87.2007 114.069 88.8902C117.472 92.3379 120.686 95.9691 123.694 99.7676C125.402 101.929 127.041 104.143 128.612 106.408C128.66 106.491 128.728 106.561 128.81 106.612C128.892 106.663 128.985 106.692 129.08 106.698Z" fill="black"/>
<path d="M43.2081 141.574C36.9766 140.614 32.9715 135.102 30.9418 129.535C30.3116 127.762 29.7807 125.955 29.3515 124.123C29.1715 123.393 28.0458 123.704 28.2215 124.438C29.7658 130.751 32.2768 137.413 38.1149 140.932C39.5793 141.828 41.2043 142.428 42.8984 142.698C43.6349 142.816 43.9488 141.688 43.2081 141.574Z" fill="black"/>
<path d="M128.461 144.909C121.765 144.179 117.254 138.462 113.437 133.499C112.985 132.912 111.968 133.499 112.428 134.091C116.542 139.439 121.284 145.299 128.461 146.08C129.206 146.163 129.206 144.989 128.461 144.909Z" fill="black"/>
<path d="M181.196 79.7622C180.957 81.5715 180.054 83.2269 178.664 84.4059C177.124 85.7231 175.095 86.1133 173.224 86.7887C171.542 87.3776 170.016 88.3431 168.763 89.6118C167.56 90.8912 166.554 92.3432 165.779 93.92C165.385 94.6793 165.034 95.4595 164.699 96.2482C164.624 96.2154 164.543 96.1969 164.461 96.1937C162.888 96.173 161.34 95.7989 159.93 95.099C158.521 94.3992 157.286 93.3914 156.316 92.1498C155.898 91.596 155.132 92.3008 155.396 92.8587C157.02 96.2566 159.116 100.049 163.23 100.603H163.297C163.327 100.746 163.409 100.873 163.527 100.959C166.277 103.057 165.528 106.987 164.448 109.735C163.896 111.149 163.192 112.382 161.778 113.091C160.481 113.647 159.062 113.858 157.66 113.703C157.576 113.698 157.492 113.71 157.413 113.737C155.384 112.537 153.443 111.194 151.604 109.718C150.671 109.005 149.746 108.275 148.829 107.537C148.365 107.163 147.905 106.782 147.444 106.404C147.007 105.975 146.527 105.591 146.013 105.259C145.594 105.032 144.917 105.54 145.272 106.001C145.644 106.438 146.065 106.829 146.528 107.168C147.009 107.587 147.499 107.969 147.988 108.363C148.931 109.127 149.881 109.876 150.838 110.612C152.737 112.14 154.742 113.529 156.84 114.769H156.877C154.442 122.445 149.294 128.868 143.774 134.632C142.184 136.31 140.552 137.92 138.911 139.536C138.375 140.068 139.204 140.895 139.748 140.374C145.607 134.606 151.525 128.629 155.408 121.279C156.495 119.227 157.39 117.078 158.083 114.861C159.605 114.969 161.129 114.68 162.506 114.022C164.117 113.183 164.933 111.694 165.578 110.054C166.863 106.773 167.306 102.562 164.293 100.108C164.421 100.037 164.519 99.922 164.569 99.7845C165.779 96.4957 167.105 93.0097 169.591 90.4676C170.909 89.1673 172.526 88.2121 174.299 87.6864C176.183 87.0655 178.087 86.5118 179.598 85.1694C181.136 83.7744 182.115 81.8657 182.351 79.7999C182.456 79.0155 181.284 79.0239 181.196 79.7622Z" fill="black"/>
<path d="M63.7021 101.798C60.2536 109.5 57.1149 117.33 54.2858 125.289C53.4879 127.546 52.715 129.81 51.9673 132.081C51.7288 132.798 52.8587 133.109 53.0931 132.391C55.7101 124.455 58.6396 116.624 61.8816 108.9C62.8023 106.71 63.7495 104.532 64.7232 102.364C65.012 101.71 64.0076 101.114 63.7021 101.798Z" fill="black"/>
<path d="M1.7555 197.35H0.5L0.52511 147.871H100.128V149.129H1.78061L1.7555 197.35Z" fill="black"/>
<path d="M57.6087 148.034C56.6862 146.459 55.8913 144.812 55.2316 143.11C54.6224 141.389 54.2015 139.607 53.9761 137.795C53.8841 137.056 52.7206 137.044 52.8085 137.795C53.0357 139.711 53.4693 141.597 54.1017 143.42C54.7035 145.256 55.548 147.002 56.6127 148.613C56.6893 148.746 56.8152 148.842 56.9627 148.881C57.1103 148.921 57.2674 148.9 57.3995 148.823C57.5315 148.746 57.6278 148.62 57.667 148.472C57.7063 148.324 57.6853 148.167 57.6087 148.034Z" fill="black"/>
<path d="M223.038 170.834H164.301V169.156H221.364V125.432L153.01 125.172L153.015 123.494L223.038 123.758V170.834Z" fill="black"/>
</g>
<defs>
<clipPath id="clip0_4_14482">
<rect width="268" height="198" fill="white" transform="translate(0.5)"/>
</clipPath>
</defs>
</svg>
