<svg width="278" height="182" viewBox="0 0 278 182" fill="none" xmlns="http://www.w3.org/2000/svg">
<path d="M4.9 174.16C4.03333 174.16 3.23333 174.053 2.5 173.84C1.78 173.627 1.16667 173.32 0.66 172.92L1.36 171.18C2.4 171.94 3.59333 172.32 4.94 172.32C5.51333 172.32 5.94667 172.227 6.24 172.04C6.54667 171.853 6.7 171.587 6.7 171.24C6.7 170.947 6.59333 170.72 6.38 170.56C6.18 170.4 5.81333 170.253 5.28 170.12L3.68 169.76C2.77333 169.56 2.1 169.233 1.66 168.78C1.22 168.327 1 167.74 1 167.02C1 166.42 1.16667 165.893 1.5 165.44C1.84667 164.973 2.32 164.613 2.92 164.36C3.53333 164.107 4.24 163.98 5.04 163.98C5.73333 163.98 6.4 164.087 7.04 164.3C7.69333 164.513 8.26667 164.813 8.76 165.2L8.06 166.9C7.04667 166.167 6.03333 165.8 5.02 165.8C4.47333 165.8 4.04667 165.9 3.74 166.1C3.43333 166.3 3.28 166.58 3.28 166.94C3.28 167.207 3.37333 167.427 3.56 167.6C3.76 167.773 4.07333 167.907 4.5 168L6.16 168.38C7.13333 168.593 7.84667 168.933 8.3 169.4C8.75333 169.853 8.98 170.453 8.98 171.2C8.98 172.107 8.61333 172.827 7.88 173.36C7.14667 173.893 6.15333 174.16 4.9 174.16ZM20.1903 164.24L14.3103 177.6H11.7903L13.5703 173.62L9.49031 164.24H12.1303L14.8903 171.14L17.7303 164.24H20.1903ZM33.0177 163.98C34.1243 163.98 34.951 164.313 35.4977 164.98C36.0443 165.633 36.3177 166.64 36.3177 168V174H33.8177V168.1C33.8177 167.353 33.691 166.813 33.4377 166.48C33.1843 166.133 32.7777 165.96 32.2177 165.96C31.551 165.96 31.031 166.187 30.6577 166.64C30.2843 167.093 30.0977 167.727 30.0977 168.54V174H27.5977V168.1C27.5977 167.353 27.471 166.813 27.2177 166.48C26.9777 166.133 26.571 165.96 25.9977 165.96C25.3443 165.96 24.831 166.187 24.4577 166.64C24.0843 167.093 23.8977 167.727 23.8977 168.54V174H21.3977V164.22H23.8377V165.6C24.131 165.067 24.5377 164.667 25.0577 164.4C25.5777 164.12 26.171 163.98 26.8377 163.98C28.3177 163.98 29.2977 164.593 29.7777 165.82C30.0843 165.247 30.5243 164.8 31.0977 164.48C31.671 164.147 32.311 163.98 33.0177 163.98ZM44.4786 163.98C45.3319 163.98 46.0853 164.187 46.7386 164.6C47.3919 165.013 47.8986 165.6 48.2586 166.36C48.6319 167.12 48.8186 168.007 48.8186 169.02C48.8186 170.033 48.6319 170.933 48.2586 171.72C47.8986 172.493 47.3853 173.093 46.7186 173.52C46.0653 173.947 45.3186 174.16 44.4786 174.16C43.7719 174.16 43.1386 174.007 42.5786 173.7C42.0319 173.393 41.6119 172.967 41.3186 172.42V174H38.8586V159.9H41.3586V165.64C41.6519 165.107 42.0719 164.7 42.6186 164.42C43.1653 164.127 43.7853 163.98 44.4786 163.98ZM43.8186 172.22C44.6053 172.22 45.2186 171.94 45.6586 171.38C46.0986 170.82 46.3186 170.033 46.3186 169.02C46.3186 168.02 46.0986 167.253 45.6586 166.72C45.2319 166.187 44.6186 165.92 43.8186 165.92C43.0186 165.92 42.3986 166.193 41.9586 166.74C41.5319 167.273 41.3186 168.047 41.3186 169.06C41.3186 170.073 41.5319 170.853 41.9586 171.4C42.3986 171.947 43.0186 172.22 43.8186 172.22ZM55.3303 174.16C54.3303 174.16 53.4503 173.953 52.6903 173.54C51.9436 173.127 51.3636 172.533 50.9503 171.76C50.537 170.987 50.3303 170.087 50.3303 169.06C50.3303 168.033 50.537 167.14 50.9503 166.38C51.3636 165.607 51.9436 165.013 52.6903 164.6C53.4503 164.187 54.3303 163.98 55.3303 163.98C56.3303 163.98 57.2036 164.187 57.9503 164.6C58.7103 165.013 59.2903 165.607 59.6903 166.38C60.1036 167.14 60.3103 168.033 60.3103 169.06C60.3103 170.087 60.1036 170.987 59.6903 171.76C59.2903 172.533 58.7103 173.127 57.9503 173.54C57.2036 173.953 56.3303 174.16 55.3303 174.16ZM55.3103 172.22C56.1236 172.22 56.7436 171.953 57.1703 171.42C57.597 170.887 57.8103 170.1 57.8103 169.06C57.8103 168.033 57.597 167.253 57.1703 166.72C56.7436 166.173 56.1303 165.9 55.3303 165.9C54.5303 165.9 53.9103 166.173 53.4703 166.72C53.0436 167.253 52.8303 168.033 52.8303 169.06C52.8303 170.1 53.0436 170.887 53.4703 171.42C53.897 171.953 54.5103 172.22 55.3103 172.22ZM62.3742 159.9H64.8742V174H62.3742V159.9ZM67.5123 167.66H73.4723V169.64H67.5123V167.66ZM82.5642 166.06L81.1042 166.2C79.4509 166.373 78.6242 167.213 78.6242 168.72V174H76.1242V164.22H78.5042V165.94C79.0109 164.767 80.0576 164.127 81.6442 164.02L82.4042 163.96L82.5642 166.06ZM93.0252 159.9V174H90.5452V172.42C90.2518 172.967 89.8252 173.393 89.2652 173.7C88.7185 174.007 88.0918 174.16 87.3852 174.16C86.5452 174.16 85.7918 173.947 85.1252 173.52C84.4718 173.093 83.9585 172.493 83.5852 171.72C83.2252 170.933 83.0452 170.033 83.0452 169.02C83.0452 168.007 83.2252 167.12 83.5852 166.36C83.9585 165.6 84.4718 165.013 85.1252 164.6C85.7785 164.187 86.5318 163.98 87.3852 163.98C88.0918 163.98 88.7185 164.127 89.2652 164.42C89.8118 164.713 90.2318 165.127 90.5252 165.66V159.9H93.0252ZM88.0452 172.22C88.8452 172.22 89.4585 171.947 89.8852 171.4C90.3252 170.853 90.5452 170.073 90.5452 169.06C90.5452 168.047 90.3252 167.273 89.8852 166.74C89.4585 166.193 88.8518 165.92 88.0652 165.92C87.2652 165.92 86.6452 166.187 86.2052 166.72C85.7652 167.253 85.5452 168.02 85.5452 169.02C85.5452 170.033 85.7652 170.82 86.2052 171.38C86.6452 171.94 87.2585 172.22 88.0452 172.22ZM95.6569 167.66H101.617V169.64H95.6569V167.66ZM108.005 174.16C107.139 174.16 106.339 174.053 105.605 173.84C104.885 173.627 104.272 173.32 103.765 172.92L104.465 171.18C105.505 171.94 106.699 172.32 108.045 172.32C108.619 172.32 109.052 172.227 109.345 172.04C109.652 171.853 109.805 171.587 109.805 171.24C109.805 170.947 109.699 170.72 109.485 170.56C109.285 170.4 108.919 170.253 108.385 170.12L106.785 169.76C105.879 169.56 105.205 169.233 104.765 168.78C104.325 168.327 104.105 167.74 104.105 167.02C104.105 166.42 104.272 165.893 104.605 165.44C104.952 164.973 105.425 164.613 106.025 164.36C106.639 164.107 107.345 163.98 108.145 163.98C108.839 163.98 109.505 164.087 110.145 164.3C110.799 164.513 111.372 164.813 111.865 165.2L111.165 166.9C110.152 166.167 109.139 165.8 108.125 165.8C107.579 165.8 107.152 165.9 106.845 166.1C106.539 166.3 106.385 166.58 106.385 166.94C106.385 167.207 106.479 167.427 106.665 167.6C106.865 167.773 107.179 167.907 107.605 168L109.265 168.38C110.239 168.593 110.952 168.933 111.405 169.4C111.859 169.853 112.085 170.453 112.085 171.2C112.085 172.107 111.719 172.827 110.985 173.36C110.252 173.893 109.259 174.16 108.005 174.16ZM119.015 172.28C119.308 172.28 119.615 172.26 119.935 172.22L119.815 174.08C119.415 174.12 119.048 174.14 118.715 174.14C117.342 174.14 116.328 173.827 115.675 173.2C115.022 172.56 114.695 171.613 114.695 170.36V166.1H112.815V164.22H114.695V161.3H117.195V164.22H119.775V166.1H117.195V170.32C117.195 171.627 117.802 172.28 119.015 172.28ZM125.598 163.98C126.971 163.98 127.991 164.313 128.658 164.98C129.324 165.647 129.658 166.673 129.658 168.06V174H127.278V172.5C127.051 173.02 126.691 173.427 126.198 173.72C125.718 174.013 125.158 174.16 124.518 174.16C123.864 174.16 123.271 174.027 122.738 173.76C122.204 173.493 121.784 173.127 121.478 172.66C121.171 172.193 121.018 171.673 121.018 171.1C121.018 170.38 121.198 169.813 121.558 169.4C121.931 168.987 122.531 168.687 123.358 168.5C124.184 168.313 125.324 168.22 126.778 168.22H127.278V167.76C127.278 167.093 127.131 166.613 126.838 166.32C126.558 166.027 126.084 165.88 125.418 165.88C124.898 165.88 124.351 165.973 123.778 166.16C123.218 166.333 122.664 166.58 122.118 166.9L121.418 165.18C121.964 164.833 122.624 164.547 123.398 164.32C124.171 164.093 124.904 163.98 125.598 163.98ZM125.018 172.36C125.684 172.36 126.224 172.14 126.638 171.7C127.064 171.247 127.278 170.667 127.278 169.96V169.54H126.918C126.024 169.54 125.331 169.58 124.838 169.66C124.344 169.74 123.991 169.88 123.778 170.08C123.564 170.28 123.458 170.553 123.458 170.9C123.458 171.327 123.604 171.68 123.898 171.96C124.191 172.227 124.564 172.36 125.018 172.36ZM137.198 172.28C137.492 172.28 137.798 172.26 138.118 172.22L137.998 174.08C137.598 174.12 137.232 174.14 136.898 174.14C135.525 174.14 134.512 173.827 133.858 173.2C133.205 172.56 132.878 171.613 132.878 170.36V166.1H130.998V164.22H132.878V161.3H135.378V164.22H137.958V166.1H135.378V170.32C135.378 171.627 135.985 172.28 137.198 172.28ZM139.581 164.22H142.081V174H139.581V164.22ZM142.201 159.68V162.14H139.441V159.68H142.201ZM149.119 174.16C148.119 174.16 147.239 173.953 146.479 173.54C145.733 173.127 145.153 172.533 144.739 171.76C144.326 170.987 144.119 170.087 144.119 169.06C144.119 168.033 144.326 167.14 144.739 166.38C145.153 165.607 145.733 165.013 146.479 164.6C147.239 164.187 148.119 163.98 149.119 163.98C150.119 163.98 150.993 164.187 151.739 164.6C152.499 165.013 153.079 165.607 153.479 166.38C153.893 167.14 154.099 168.033 154.099 169.06C154.099 170.087 153.893 170.987 153.479 171.76C153.079 172.533 152.499 173.127 151.739 173.54C150.993 173.953 150.119 174.16 149.119 174.16ZM149.099 172.22C149.913 172.22 150.533 171.953 150.959 171.42C151.386 170.887 151.599 170.1 151.599 169.06C151.599 168.033 151.386 167.253 150.959 166.72C150.533 166.173 149.919 165.9 149.119 165.9C148.319 165.9 147.699 166.173 147.259 166.72C146.833 167.253 146.619 168.033 146.619 169.06C146.619 170.1 146.833 170.887 147.259 171.42C147.686 171.953 148.299 172.22 149.099 172.22ZM161.843 163.98C163.017 163.98 163.89 164.313 164.463 164.98C165.037 165.647 165.323 166.653 165.323 168V174H162.823V168.14C162.823 167.38 162.677 166.827 162.383 166.48C162.103 166.133 161.657 165.96 161.043 165.96C160.323 165.96 159.743 166.187 159.303 166.64C158.877 167.093 158.663 167.7 158.663 168.46V174H156.163V164.22H158.603V165.68C158.937 165.133 159.383 164.713 159.943 164.42C160.503 164.127 161.137 163.98 161.843 163.98ZM167.923 167.66H173.883V169.64H167.923V167.66ZM186.267 159.9V174H183.787V172.42C183.494 172.967 183.067 173.393 182.507 173.7C181.961 174.007 181.334 174.16 180.627 174.16C179.787 174.16 179.034 173.947 178.367 173.52C177.714 173.093 177.201 172.493 176.827 171.72C176.467 170.933 176.287 170.033 176.287 169.02C176.287 168.007 176.467 167.12 176.827 166.36C177.201 165.6 177.714 165.013 178.367 164.6C179.021 164.187 179.774 163.98 180.627 163.98C181.334 163.98 181.961 164.127 182.507 164.42C183.054 164.713 183.474 165.127 183.767 165.66V159.9H186.267ZM181.287 172.22C182.087 172.22 182.701 171.947 183.127 171.4C183.567 170.853 183.787 170.073 183.787 169.06C183.787 168.047 183.567 167.273 183.127 166.74C182.701 166.193 182.094 165.92 181.307 165.92C180.507 165.92 179.887 166.187 179.447 166.72C179.007 167.253 178.787 168.02 178.787 169.02C178.787 170.033 179.007 170.82 179.447 171.38C179.887 171.94 180.501 172.22 181.287 172.22ZM197.419 169.56H190.759C190.839 170.467 191.112 171.14 191.579 171.58C192.046 172.02 192.712 172.24 193.579 172.24C194.659 172.24 195.646 171.893 196.539 171.2L197.259 172.92C196.806 173.293 196.232 173.593 195.539 173.82C194.859 174.047 194.172 174.16 193.479 174.16C191.879 174.16 190.612 173.707 189.679 172.8C188.759 171.893 188.299 170.653 188.299 169.08C188.299 168.08 188.499 167.193 188.899 166.42C189.299 165.647 189.859 165.047 190.579 164.62C191.312 164.193 192.139 163.98 193.059 163.98C194.406 163.98 195.466 164.413 196.239 165.28C197.026 166.147 197.419 167.34 197.419 168.86V169.56ZM193.119 165.74C192.452 165.74 191.912 165.953 191.499 166.38C191.099 166.807 190.852 167.42 190.759 168.22H195.279C195.252 167.407 195.052 166.793 194.679 166.38C194.306 165.953 193.786 165.74 193.119 165.74ZM202.585 164.22H205.165V166.1H202.585V174H200.085V166.1H198.205V164.22H200.085C200.085 162.82 200.445 161.767 201.165 161.06C201.899 160.353 203.032 159.96 204.565 159.88L205.545 159.82L205.705 161.68L204.765 161.72C203.979 161.76 203.419 161.94 203.085 162.26C202.752 162.567 202.585 163.067 202.585 163.76V164.22ZM210.676 163.98C212.049 163.98 213.069 164.313 213.736 164.98C214.402 165.647 214.736 166.673 214.736 168.06V174H212.356V172.5C212.129 173.02 211.769 173.427 211.276 173.72C210.796 174.013 210.236 174.16 209.596 174.16C208.942 174.16 208.349 174.027 207.816 173.76C207.282 173.493 206.862 173.127 206.556 172.66C206.249 172.193 206.096 171.673 206.096 171.1C206.096 170.38 206.276 169.813 206.636 169.4C207.009 168.987 207.609 168.687 208.436 168.5C209.262 168.313 210.402 168.22 211.856 168.22H212.356V167.76C212.356 167.093 212.209 166.613 211.916 166.32C211.636 166.027 211.162 165.88 210.496 165.88C209.976 165.88 209.429 165.973 208.856 166.16C208.296 166.333 207.742 166.58 207.196 166.9L206.496 165.18C207.042 164.833 207.702 164.547 208.476 164.32C209.249 164.093 209.982 163.98 210.676 163.98ZM210.096 172.36C210.762 172.36 211.302 172.14 211.716 171.7C212.142 171.247 212.356 170.667 212.356 169.96V169.54H211.996C211.102 169.54 210.409 169.58 209.916 169.66C209.422 169.74 209.069 169.88 208.856 170.08C208.642 170.28 208.536 170.553 208.536 170.9C208.536 171.327 208.682 171.68 208.976 171.96C209.269 172.227 209.642 172.36 210.096 172.36ZM226.257 164.22V174H223.817V172.5C223.51 173.033 223.097 173.447 222.577 173.74C222.057 174.02 221.47 174.16 220.817 174.16C218.417 174.16 217.217 172.813 217.217 170.12V164.22H219.717V170.14C219.717 170.833 219.857 171.347 220.137 171.68C220.417 172.013 220.857 172.18 221.457 172.18C222.15 172.18 222.703 171.953 223.117 171.5C223.543 171.033 223.757 170.42 223.757 169.66V164.22H226.257ZM228.859 159.9H231.359V174H228.859V159.9ZM238.937 172.28C239.23 172.28 239.537 172.26 239.857 172.22L239.737 174.08C239.337 174.12 238.97 174.14 238.637 174.14C237.263 174.14 236.25 173.827 235.597 173.2C234.943 172.56 234.617 171.613 234.617 170.36V166.1H232.737V164.22H234.617V161.3H237.117V164.22H239.697V166.1H237.117V170.32C237.117 171.627 237.723 172.28 238.937 172.28ZM244.29 171.24V174H241.49V171.24H244.29ZM250.31 174.16C249.443 174.16 248.643 174.053 247.91 173.84C247.19 173.627 246.577 173.32 246.07 172.92L246.77 171.18C247.81 171.94 249.003 172.32 250.35 172.32C250.923 172.32 251.357 172.227 251.65 172.04C251.957 171.853 252.11 171.587 252.11 171.24C252.11 170.947 252.003 170.72 251.79 170.56C251.59 170.4 251.223 170.253 250.69 170.12L249.09 169.76C248.183 169.56 247.51 169.233 247.07 168.78C246.63 168.327 246.41 167.74 246.41 167.02C246.41 166.42 246.577 165.893 246.91 165.44C247.257 164.973 247.73 164.613 248.33 164.36C248.943 164.107 249.65 163.98 250.45 163.98C251.143 163.98 251.81 164.087 252.45 164.3C253.103 164.513 253.677 164.813 254.17 165.2L253.47 166.9C252.457 166.167 251.443 165.8 250.43 165.8C249.883 165.8 249.457 165.9 249.15 166.1C248.843 166.3 248.69 166.58 248.69 166.94C248.69 167.207 248.783 167.427 248.97 167.6C249.17 167.773 249.483 167.907 249.91 168L251.57 168.38C252.543 168.593 253.257 168.933 253.71 169.4C254.163 169.853 254.39 170.453 254.39 171.2C254.39 172.107 254.023 172.827 253.29 173.36C252.557 173.893 251.563 174.16 250.31 174.16ZM265.6 164.24L261.32 174H259.14L254.9 164.24H257.54L260.3 171.14L263.14 164.24H265.6ZM276.172 164.22V173.1C276.172 174.633 275.745 175.793 274.892 176.58C274.052 177.367 272.805 177.76 271.152 177.76C270.298 177.76 269.478 177.647 268.692 177.42C267.905 177.207 267.218 176.9 266.632 176.5L267.332 174.74C268.545 175.473 269.798 175.84 271.092 175.84C272.825 175.84 273.692 174.987 273.692 173.28V172C273.398 172.547 272.972 172.973 272.412 173.28C271.852 173.573 271.212 173.72 270.492 173.72C269.638 173.72 268.878 173.52 268.212 173.12C267.558 172.707 267.045 172.133 266.672 171.4C266.298 170.667 266.112 169.82 266.112 168.86C266.112 167.9 266.292 167.053 266.652 166.32C267.025 165.573 267.545 165 268.212 164.6C268.878 164.187 269.638 163.98 270.492 163.98C271.212 163.98 271.852 164.133 272.412 164.44C272.972 164.733 273.398 165.153 273.692 165.7V164.22H276.172ZM271.152 171.78C271.952 171.78 272.572 171.52 273.012 171C273.465 170.48 273.692 169.767 273.692 168.86C273.692 167.94 273.465 167.22 273.012 166.7C272.572 166.18 271.952 165.92 271.152 165.92C270.365 165.92 269.745 166.18 269.292 166.7C268.838 167.22 268.612 167.94 268.612 168.86C268.612 169.753 268.838 170.467 269.292 171C269.745 171.52 270.365 171.78 271.152 171.78Z" fill="#212429"/>
<g clip-path="url(#clip0_5_18988)">
<path d="M111.571 48.0261L76.9111 103.961L88.6912 128L123.351 72.0654L111.571 48.0261Z" fill="#806EFF"/>
<path d="M34.6597 0L0 55.9345L11.7801 79.9738L46.4398 24.0393L34.6597 0Z" fill="#806EFF"/>
<path d="M84.9213 48.0262L99.7904 24.0393L90.2616 4.66121L88.0103 0L58.2197 48.0262L23.5601 103.961L35.3402 128L69.9999 72.0655L66.1255 64.1047L58.2197 48.0262H84.9213Z" fill="#806EFF"/>
<path d="M150 72.0654L138.22 48.0261H111.571L123.351 72.0654L88.6909 128H115.34L150 72.0654Z" fill="black"/>
<path d="M73.0892 24.0393L61.3091 0H34.6598L46.4399 24.0393L11.7803 79.9738H38.4295L73.0892 24.0393Z" fill="black"/>
<path d="M96.7016 72.0655L126.44 24.0393L114.66 0H88.0105L99.7906 24.0393L84.9215 48.0262H58.2199L70 72.0655L35.3403 128H62.0419L91.7801 79.9738L96.7016 72.0655Z" fill="black"/>
</g>
<defs>
<clipPath id="clip0_5_18988">
<rect width="150" height="128" fill="white"/>
</clipPath>
</defs>
</svg>
