<svg width="71" height="60" viewBox="0 0 71 60" fill="none" xmlns="http://www.w3.org/2000/svg">
<g clip-path="url(#clip0_1_37413)">
<path d="M52.5664 22.5122L36.3918 48.7315L41.8892 59.9999L58.0637 33.7806L52.5664 22.5122Z" fill="#806EFF"/>
<path d="M16.6745 0L0.5 26.2193L5.99738 37.4877L22.1719 11.2684L16.6745 0Z" fill="#806EFF"/>
<path d="M40.1301 22.5123L47.069 11.2684L42.6223 2.18494L41.5717 0L27.6694 22.5123L11.4949 48.7316L16.9923 60L33.1668 33.7807L31.3588 30.0491L27.6694 22.5123H40.1301Z" fill="#806EFF"/>
<path d="M70.5 33.7806L65.0026 22.5122H52.5663L58.0637 33.7806L41.8892 59.9999H54.3255L70.5 33.7806Z" fill="black"/>
<path d="M34.6081 11.2684L29.1107 0H16.6744L22.1718 11.2684L5.99731 37.4877H18.4336L34.6081 11.2684Z" fill="black"/>
<path d="M45.6274 33.7807L59.5053 11.2684L54.0079 0H41.5716L47.069 11.2684L40.1301 22.5123H27.6693L33.1667 33.7807L16.9922 60H29.4529L43.3308 37.4877L45.6274 33.7807Z" fill="black"/>
</g>
<defs>
<clipPath id="clip0_1_37413">
<rect width="70" height="60" fill="white" transform="translate(0.5)"/>
</clipPath>
</defs>
</svg>
